{"glyphs":{"0":{"ha":750,"x_min":10,"x_max":742,"o":"m 10 354 q 165 656 50 540 q 388 771 279 771 q 597 666 496 771 q 742 396 697 561 q 590 94 701 210 q 379 -21 479 -21 q 158 85 261 -21 q 10 354 54 190 m 379 708 q 295 584 326 682 q 264 376 264 486 q 295 167 264 265 q 379 42 326 68 q 460 167 429 68 q 492 376 492 265 q 461 584 492 486 q 379 708 431 682 z "},"1":{"ha":750,"x_min":174,"x_max":565,"o":"m 522 767 q 499 373 499 607 q 514 43 499 139 q 565 22 547 32 l 560 -11 q 382 0 486 0 q 208 -10 278 0 l 206 22 q 272 40 240 33 q 289 324 289 157 q 285 575 289 492 l 178 575 l 174 579 q 179 621 174 599 q 456 765 335 654 q 518 771 494 771 l 522 767 z "},"2":{"ha":750,"x_min":35,"x_max":665,"o":"m 665 246 q 647 115 647 190 q 663 -12 647 40 l 643 -24 q 126 32 379 32 q 67 -35 92 10 l 35 -19 q 189 208 67 68 q 281 319 236 263 q 382 557 382 447 q 363 634 382 610 q 301 658 343 658 q 231 646 260 658 q 218 569 218 608 q 235 514 218 531 l 233 503 q 114 433 168 481 q 74 476 74 436 q 163 660 74 572 q 354 771 251 747 q 635 519 635 771 q 269 186 496 349 l 269 171 q 319 196 301 192 q 594 169 451 196 q 632 257 615 208 l 665 246 z "},"3":{"ha":750,"x_min":107,"x_max":717,"o":"m 203 303 q 206 215 203 247 q 394 88 293 88 q 442 94 426 88 q 460 216 460 138 q 420 333 460 294 q 297 371 381 371 l 279 382 l 444 589 l 442 594 q 403 581 419 585 q 236 590 329 581 q 204 503 215 544 l 174 511 q 185 649 185 578 q 169 765 185 719 l 186 778 q 600 740 368 740 q 688 794 663 768 l 717 772 l 463 510 q 644 420 590 493 q 697 211 697 347 q 553 73 643 139 q 381 -21 464 7 q 107 54 269 -21 l 107 74 q 168 303 156 129 l 203 303 z "},"4":{"ha":750,"x_min":26,"x_max":699,"o":"m 357 171 l 38 171 l 26 201 q 336 738 199 415 q 467 749 389 739 q 574 771 544 758 l 586 765 q 565 530 565 664 q 568 301 565 396 q 638 312 618 301 q 674 361 658 322 l 699 356 q 685 169 685 283 l 678 167 q 569 171 633 171 q 579 43 569 90 q 640 21 614 25 l 635 -12 q 443 0 551 0 q 269 -11 335 0 l 264 21 q 349 44 310 39 q 357 171 357 107 m 351 631 q 211 315 283 428 q 357 306 292 307 l 361 631 l 351 631 z "},"5":{"ha":750,"x_min":86,"x_max":663,"o":"m 182 289 q 185 201 182 233 q 365 88 258 88 q 407 94 397 88 q 425 210 425 138 q 386 323 425 282 q 283 364 347 364 q 176 353 219 364 l 160 367 l 174 626 q 176 704 176 664 q 171 779 176 744 l 201 785 l 215 746 q 578 783 431 750 l 593 771 q 575 655 575 717 q 583 543 575 593 l 550 536 q 522 594 539 572 q 296 583 426 583 l 264 597 l 258 593 l 228 436 q 389 482 303 465 q 591 406 519 475 q 663 211 663 338 q 519 73 608 139 q 346 -21 429 7 q 86 40 218 -21 l 86 60 q 147 289 135 115 l 182 289 z "},"6":{"ha":750,"x_min":78,"x_max":699,"o":"m 307 294 q 397 75 307 75 q 456 93 436 75 q 471 215 471 139 q 449 334 471 292 q 353 376 426 376 l 353 388 q 439 511 411 446 q 629 437 560 511 q 699 214 699 363 q 553 71 640 135 q 372 -21 465 7 q 78 249 78 -21 q 222 588 78 436 q 568 799 367 739 l 586 774 q 374 571 440 683 q 307 294 307 458 z "},"7":{"ha":750,"x_min":144,"x_max":682,"o":"m 461 569 q 374 568 431 568 q 224 578 318 568 q 196 490 207 538 l 163 497 q 171 629 171 547 q 153 765 171 711 l 168 778 q 621 740 347 740 q 649 776 636 756 l 682 760 q 536 465 593 606 q 429 47 429 201 q 515 26 472 40 l 511 -6 q 360 0 463 0 q 151 -21 258 0 l 144 13 q 204 38 181 22 q 258 176 215 96 q 414 436 300 257 l 504 579 l 499 585 q 461 569 479 575 z "},"8":{"ha":750,"x_min":92,"x_max":661,"o":"m 376 -22 q 176 26 260 -22 q 92 169 92 74 q 244 371 92 264 q 124 603 124 454 q 244 712 163 661 q 397 778 325 763 q 545 744 490 778 q 600 644 600 711 q 565 555 600 601 q 478 472 529 508 q 647 314 617 400 q 661 219 661 272 q 542 69 619 138 q 376 -22 465 1 m 449 72 q 460 156 460 114 q 449 222 460 199 q 415 264 439 244 q 300 336 376 299 q 260 201 260 264 q 299 99 260 138 q 388 61 339 61 q 449 72 438 61 m 325 685 q 317 626 317 664 q 342 560 317 589 q 418 503 368 531 q 451 622 451 556 q 428 676 451 657 q 370 694 406 694 q 325 685 335 694 z "},"9":{"ha":750,"x_min":51,"x_max":672,"o":"m 443 465 q 353 685 443 685 q 294 667 314 685 q 279 544 279 621 q 301 426 279 468 q 397 383 324 383 l 397 372 q 311 249 339 314 q 121 323 190 249 q 51 546 51 397 q 197 689 110 625 q 378 781 285 753 q 672 511 672 781 q 528 172 672 324 q 182 -39 383 21 l 164 -14 q 376 189 310 76 q 443 465 443 301 z "},"\u0018":{"ha":0,"x_min":0,"x_max":0,"o":""}," ":{"ha":250,"x_min":0,"x_max":0,"o":""},"!":{"ha":361,"x_min":47,"x_max":351,"o":"m 310 118 q 253 44 294 88 q 179 -21 211 1 q 106 44 147 0 q 47 118 64 88 q 103 181 65 147 q 179 231 142 214 q 251 180 213 213 q 310 118 290 147 m 258 988 q 269 988 264 988 q 351 904 324 956 q 206 342 256 643 l 142 335 l 89 942 q 258 988 167 988 z "},"\"":{"ha":582,"x_min":111,"x_max":521,"o":"m 142 525 l 111 904 q 269 946 176 946 l 290 918 q 201 532 233 751 l 142 525 m 372 525 l 342 904 q 500 946 407 946 l 521 918 q 432 532 464 751 l 372 525 z "},"#":{"ha":764,"x_min":56,"x_max":708,"o":"m 543 529 q 658 528 628 528 q 699 528 689 528 l 708 519 l 694 432 l 532 436 l 513 268 q 622 267 593 267 q 661 267 651 267 l 671 260 l 657 171 l 501 175 l 465 -128 l 458 -128 q 382 -99 399 -114 q 424 178 406 36 l 285 181 l 249 -128 l 242 -128 q 165 -99 182 -114 q 207 182 194 69 l 67 186 l 56 196 l 69 289 l 133 283 q 218 278 203 278 l 239 443 l 104 447 l 93 456 l 107 550 l 169 544 q 250 539 232 540 l 285 815 q 365 822 331 815 l 371 818 q 326 536 342 656 l 467 531 l 501 815 q 582 822 547 815 l 588 818 q 543 529 558 663 m 296 274 l 435 269 l 456 439 l 315 442 l 296 274 z "},"$":{"ha":750,"x_min":85,"x_max":647,"o":"m 150 464 q 230 634 150 546 q 403 760 310 722 q 401 838 401 785 q 456 869 433 851 l 464 865 q 454 771 458 825 q 647 744 553 768 l 647 722 q 576 522 586 667 l 540 522 q 533 617 540 588 q 449 656 497 644 l 440 482 q 602 372 568 406 q 636 308 636 339 q 550 138 636 238 q 378 -8 464 38 l 371 -154 l 363 -156 q 314 -132 335 -153 l 326 -21 q 158 6 242 -17 q 110 -37 136 -7 l 85 -14 q 168 238 168 79 l 203 238 l 208 158 q 333 97 263 107 l 344 283 q 183 397 217 361 q 150 464 150 432 m 301 600 q 396 508 301 564 l 401 661 q 332 646 363 661 q 301 600 301 631 m 471 167 q 392 253 471 199 l 383 97 l 383 96 q 471 167 471 101 z "},"%":{"ha":1033,"x_min":1,"x_max":1033,"o":"m 247 792 q 400 771 278 792 q 615 750 522 750 q 739 803 707 750 l 747 817 q 857 831 824 821 l 861 826 q 660 525 767 692 l 236 -139 l 229 -139 q 156 -94 165 -110 q 325 142 296 96 l 568 522 q 699 732 635 622 l 693 733 q 581 689 651 689 q 381 749 511 689 l 376 744 q 490 567 458 679 q 391 385 465 454 q 242 315 317 315 q 98 378 167 315 q 1 540 29 442 q 103 722 26 653 q 247 792 179 792 m 544 204 q 646 386 569 317 q 797 456 722 456 q 938 392 871 456 q 1033 231 1006 329 q 934 49 1008 118 q 785 -21 860 -21 q 641 42 710 -21 q 544 204 572 106 m 790 404 q 748 335 764 389 q 732 217 732 281 q 748 100 732 154 q 790 31 764 46 q 833 100 817 46 q 849 217 849 154 q 833 335 849 281 q 790 404 817 389 m 247 740 q 205 671 221 725 q 189 553 189 617 q 205 436 189 490 q 247 367 221 382 q 290 436 274 382 q 306 553 306 490 q 290 671 306 617 q 247 740 274 725 z "},"&":{"ha":838,"x_min":36,"x_max":857,"o":"m 36 246 q 116 413 36 347 q 304 478 196 478 l 304 490 q 145 548 206 500 q 83 683 85 596 q 449 925 211 843 q 644 897 561 925 q 701 947 653 903 l 733 926 q 660 790 685 857 q 622 629 635 722 l 583 629 q 575 750 583 703 q 415 808 513 808 q 318 781 354 808 q 317 740 317 760 q 368 584 317 644 q 539 524 419 524 q 850 567 692 524 l 857 560 q 839 457 843 515 l 835 451 q 726 461 808 454 l 710 278 q 620 96 700 182 q 442 -21 540 10 q 164 36 279 -21 q 71 120 106 67 q 36 246 36 174 m 515 463 q 286 299 286 454 q 333 164 286 213 q 465 115 381 115 q 554 131 521 115 l 554 286 q 535 463 551 424 l 515 463 z "},"'":{"ha":361,"x_min":111,"x_max":290,"o":"m 142 525 l 111 904 q 269 946 176 946 l 290 918 q 201 532 233 751 l 142 525 z "},"(":{"ha":413,"x_min":43,"x_max":368,"o":"m 347 -299 q 128 -1 214 -186 q 43 360 43 183 q 127 705 43 538 q 347 988 211 872 l 368 968 q 171 364 171 699 q 221 19 171 189 q 365 -281 271 -151 l 347 -299 z "},")":{"ha":413,"x_min":44,"x_max":369,"o":"m 65 988 q 285 705 201 872 q 369 360 369 538 q 284 -1 369 183 q 65 -299 199 -186 l 47 -281 q 192 19 142 -151 q 242 364 242 189 q 44 968 242 699 l 65 988 z "},"*":{"ha":515,"x_min":57,"x_max":454,"o":"m 393 875 q 431 878 415 878 q 453 874 447 878 q 424 821 454 865 q 454 789 451 793 l 453 785 q 440 785 446 785 q 301 760 376 785 q 440 735 376 735 q 453 735 446 735 l 454 731 q 424 699 451 726 q 453 646 454 654 q 431 642 447 642 q 393 644 415 642 q 381 603 382 606 l 375 601 q 279 717 340 663 q 333 576 294 635 l 329 574 q 286 583 321 574 q 256 532 265 536 q 225 583 242 539 q 182 574 190 574 l 178 576 q 229 717 210 629 q 136 601 165 657 l 131 603 q 118 644 129 606 q 79 643 96 643 q 58 646 63 643 q 88 699 57 661 q 57 731 60 726 l 58 735 q 204 760 122 735 q 58 785 122 785 l 57 789 q 88 821 60 793 q 58 874 57 858 q 79 876 63 876 q 118 875 96 876 q 131 917 129 914 l 136 918 q 229 803 165 863 q 178 943 210 889 l 182 946 q 225 936 192 946 q 256 988 242 981 q 286 936 265 983 q 329 946 321 946 l 333 943 q 279 803 294 882 q 375 918 342 860 l 381 917 q 393 875 382 914 z "},"+":{"ha":800,"x_min":79,"x_max":722,"o":"m 444 294 q 457 -14 444 118 l 360 -26 l 346 -17 l 346 294 l 90 294 l 79 304 l 92 403 q 346 393 261 394 l 346 675 l 444 688 l 451 679 q 444 393 444 494 l 444 392 q 578 390 496 390 q 714 394 660 390 l 722 386 l 710 294 l 444 294 z "},",":{"ha":357,"x_min":40,"x_max":310,"o":"m 310 118 q 230 -77 310 29 q 63 -235 150 -183 l 40 -207 q 146 6 133 -119 q 90 62 119 28 q 47 118 60 96 q 103 181 65 147 q 179 231 142 214 q 251 180 213 213 q 310 118 290 147 z "},"-":{"ha":417,"x_min":33,"x_max":383,"o":"m 106 414 q 372 428 256 414 l 383 421 l 375 335 l 46 314 l 33 322 l 42 414 l 106 414 z "},".":{"ha":357,"x_min":47,"x_max":310,"o":"m 310 118 q 253 44 294 88 q 179 -21 211 1 q 106 44 147 0 q 47 118 64 88 q 103 181 65 147 q 179 231 142 214 q 251 180 213 213 q 310 118 290 147 z "},"/":{"ha":492,"x_min":13,"x_max":490,"o":"m 94 -57 l 88 -57 q 13 -15 25 -31 q 118 247 44 54 l 281 663 q 389 969 336 807 q 485 981 454 974 l 490 976 q 375 682 454 894 l 94 -57 z "},":":{"ha":357,"x_min":47,"x_max":310,"o":"m 310 118 q 253 44 294 88 q 179 -21 211 1 q 106 44 147 0 q 47 118 64 88 q 103 181 65 147 q 179 231 142 214 q 251 180 213 213 q 310 118 290 147 m 310 589 q 253 515 294 558 q 179 450 211 472 q 106 515 147 471 q 47 589 64 558 q 103 651 65 618 q 179 701 142 685 q 251 651 213 683 q 310 589 290 618 z "},";":{"ha":357,"x_min":40,"x_max":310,"o":"m 310 118 q 230 -77 310 29 q 63 -235 150 -183 l 40 -207 q 146 6 133 -119 q 90 62 119 28 q 47 118 60 96 q 103 181 65 147 q 179 231 142 214 q 251 180 213 213 q 310 118 290 147 m 310 589 q 253 515 294 558 q 179 450 211 472 q 106 515 147 471 q 47 589 64 558 q 103 651 65 618 q 179 701 142 685 q 251 651 213 683 q 310 589 290 618 z "},"<":{"ha":800,"x_min":76,"x_max":724,"o":"m 688 63 q 76 308 367 222 l 96 397 q 351 488 174 421 q 690 638 529 556 l 724 546 l 717 532 l 232 353 l 232 347 l 717 169 l 724 156 l 688 63 z "},"=":{"ha":800,"x_min":78,"x_max":721,"o":"m 90 289 q 492 276 325 276 q 713 281 658 276 l 721 272 l 708 188 l 89 188 l 78 197 l 90 289 m 90 510 q 492 497 325 497 q 713 501 658 497 l 721 493 l 708 408 l 89 408 l 78 418 l 90 510 z "},">":{"ha":800,"x_min":76,"x_max":724,"o":"m 724 308 q 113 63 433 222 l 76 156 l 83 169 l 568 347 l 568 353 l 83 532 l 76 546 l 110 638 q 449 488 271 556 q 704 397 626 421 l 724 308 z "},"?":{"ha":488,"x_min":-10,"x_max":529,"o":"m 363 118 q 306 44 347 88 q 232 -21 264 1 q 158 44 200 0 q 100 118 117 88 q 156 181 118 147 q 232 231 194 214 q 304 180 265 213 q 363 118 343 147 m 285 799 q 204 885 285 885 q 146 874 175 885 q 135 805 135 843 q 150 753 135 767 l 149 743 q 26 674 75 717 q -10 714 -10 676 q 77 883 -10 799 q 257 988 164 967 q 453 931 376 988 q 529 767 529 874 q 292 544 453 664 q 261 346 267 392 l 194 339 l 164 519 l 164 546 q 285 799 285 646 z "},"@":{"ha":1194,"x_min":4,"x_max":1138,"o":"m 642 235 q 573 240 619 240 q 490 235 526 240 q 475 106 475 142 q 522 18 475 40 l 517 -8 q 390 1 476 1 q 235 -11 303 1 l 229 25 q 289 47 247 35 l 457 639 q 393 668 408 658 l 403 703 q 644 690 472 690 q 908 704 815 690 l 910 669 q 849 651 881 656 q 836 350 836 539 q 856 76 836 161 q 979 242 938 133 q 1021 467 1021 351 q 597 881 1021 881 q 349 813 449 881 q 184 550 244 701 q 124 247 124 399 q 225 -79 124 36 q 529 -194 326 -194 q 694 -164 615 -194 l 704 -182 q 518 -264 621 -240 q 136 -142 268 -264 q 4 224 4 -21 q 175 708 4 504 q 619 950 346 911 q 997 842 857 950 q 1138 524 1138 733 q 1019 158 1138 315 q 714 -21 900 0 q 642 235 642 6 m 643 354 q 632 615 643 542 q 594 621 617 621 q 557 615 572 621 l 504 325 q 571 321 531 321 q 643 325 611 321 l 643 354 z "},"A":{"ha":940,"x_min":-1,"x_max":890,"o":"m 821 940 q 788 472 788 764 q 807 47 788 179 q 890 24 861 38 l 886 -12 q 669 0 786 0 q 468 -12 551 0 l 463 25 q 540 51 493 42 q 557 319 551 140 q 453 325 519 325 q 342 318 388 325 q 321 133 321 183 q 333 55 321 83 q 379 13 344 26 l 375 -10 q 197 0 300 0 q 18 -12 93 0 l 13 25 q 90 51 40 40 l 293 808 q 140 778 171 808 q 128 706 128 743 q 149 657 128 669 l 147 647 q 35 578 82 621 q -1 618 -1 581 q 84 801 -1 708 q 267 925 169 893 q 743 868 479 890 q 786 950 769 896 l 821 940 m 558 453 q 549 788 558 639 l 544 792 q 422 800 496 800 l 356 418 q 463 413 406 413 q 558 418 521 413 l 558 453 z "},"B":{"ha":886,"x_min":-139,"x_max":850,"o":"m 99 914 q 401 904 243 904 q 587 903 558 904 q 660 899 615 903 q 726 884 704 894 q 772 856 747 874 q 815 747 815 824 q 765 608 815 669 q 642 514 715 546 l 642 503 q 794 459 738 503 q 850 329 850 415 q 714 108 850 215 q 444 -21 578 1 q 186 35 332 -21 q 151 -32 167 11 l 117 -24 q 156 396 156 153 q 142 810 156 639 q 3 779 29 806 q -10 708 -10 744 q 11 658 -10 671 l 10 649 q -103 579 -56 622 q -139 619 -139 582 q -65 789 -139 703 q 99 914 10 875 m 463 528 q 542 546 517 528 q 572 680 572 604 q 546 785 572 756 q 454 814 519 814 q 396 810 422 814 q 385 494 385 697 q 394 128 385 290 q 498 96 438 96 q 583 114 558 96 q 604 276 604 179 q 569 422 604 374 q 436 469 533 469 l 443 528 l 463 528 z "},"C":{"ha":742,"x_min":42,"x_max":771,"o":"m 379 36 q 483 -1 421 -1 q 592 22 544 -1 q 696 94 640 44 l 717 74 q 442 -160 621 -89 q 146 -45 250 -160 q 42 290 42 69 q 163 678 42 510 q 481 925 283 847 q 771 899 625 925 l 769 865 q 701 853 733 865 q 661 633 661 743 l 624 633 q 607 750 610 686 q 446 808 544 808 q 350 781 381 808 q 290 414 290 626 q 379 36 290 114 z "},"D":{"ha":946,"x_min":-139,"x_max":904,"o":"m 519 904 q 809 815 714 904 q 904 528 904 726 q 779 173 904 329 q 454 -21 654 17 q 186 35 344 -21 q 151 -32 167 11 l 117 -24 q 156 417 156 161 q 142 810 156 674 q 3 779 29 806 q -10 708 -10 744 q 11 658 -10 671 l 10 649 q -103 579 -56 622 q -139 619 -139 582 q -65 789 -139 703 q 99 914 10 875 q 519 904 243 904 m 447 814 q 396 810 421 814 q 385 491 385 686 q 394 133 385 296 q 507 96 447 96 q 604 119 567 96 q 656 444 656 244 q 447 814 656 814 z "},"E":{"ha":739,"x_min":36,"x_max":733,"o":"m 36 246 q 116 413 36 347 q 304 478 196 478 l 304 490 q 145 548 206 500 q 83 683 85 596 q 449 925 211 843 q 644 897 561 925 q 701 947 653 903 l 733 926 q 660 790 685 857 q 622 629 635 722 l 583 629 q 575 750 583 703 q 415 808 513 808 q 318 781 354 808 q 317 744 317 761 q 558 522 317 522 l 551 463 l 535 463 q 356 424 426 463 q 286 299 286 386 q 333 164 286 213 q 465 115 381 115 q 554 131 521 115 q 565 199 565 161 q 550 251 565 238 l 551 261 q 674 331 625 288 q 710 290 710 328 q 627 101 710 192 q 442 -21 544 11 q 164 36 279 -21 q 71 120 106 67 q 36 246 36 174 z "},"F":{"ha":704,"x_min":-139,"x_max":733,"o":"m 129 925 q 348 910 203 925 q 582 896 493 896 q 707 933 671 896 l 733 919 q 664 667 674 811 l 629 667 q 613 800 613 729 q 519 789 575 789 q 396 800 463 789 q 385 503 385 661 q 443 497 411 497 q 596 546 549 497 l 626 539 q 608 428 608 485 q 622 304 608 371 l 588 299 q 558 401 568 349 q 461 408 515 408 q 385 406 407 408 q 404 47 386 156 q 488 24 458 38 l 483 -12 q 266 0 383 0 q 65 -12 149 0 l 60 25 q 138 51 90 42 q 156 405 156 188 q 139 808 156 622 q 3 778 29 804 q -10 706 -10 743 q 11 657 -10 669 l 10 647 q -103 578 -56 621 q -139 618 -139 581 q -53 801 -139 708 q 129 925 32 893 z "},"G":{"ha":800,"x_min":42,"x_max":781,"o":"m 347 168 q 357 154 347 168 q 399 128 367 140 q 467 115 431 115 q 529 119 504 115 l 522 269 q 510 363 519 317 q 425 389 479 379 l 429 419 q 508 415 460 415 q 632 433 557 415 q 758 486 707 451 l 779 463 q 732 408 747 436 q 701 -6 713 211 q 563 -190 657 -104 q 381 -276 469 -276 q 340 -240 343 -276 q 410 -128 383 -193 l 419 -126 q 469 -147 432 -147 q 540 -135 506 -147 q 554 -47 554 -101 q 547 33 554 8 l 547 35 q 432 -21 496 1 q 142 79 242 -21 q 42 372 42 179 q 158 711 42 564 q 471 925 275 858 q 781 892 624 925 l 779 858 q 711 846 742 858 q 671 626 671 736 l 633 626 q 617 743 619 679 q 533 790 583 772 q 426 808 482 808 q 340 785 371 808 q 303 636 317 731 q 290 478 290 542 q 292 381 290 414 q 298 299 293 347 q 315 224 303 251 q 347 168 328 196 z "},"H":{"ha":1033,"x_min":-137,"x_max":1096,"o":"m 994 -12 q 783 0 906 0 q 578 -12 660 0 l 572 25 q 636 51 599 42 q 651 438 650 193 q 517 447 590 447 q 382 438 443 447 q 400 47 383 157 q 483 24 454 38 l 479 -12 q 263 0 379 0 q 63 -12 146 0 l 57 25 q 135 51 88 42 q 153 424 153 188 q 142 808 153 661 q 4 778 32 806 q -8 706 -8 743 q 13 657 -8 669 l 11 647 q -101 578 -54 621 q -137 618 -137 581 q -55 797 -137 707 q 122 922 28 888 q 220 913 140 922 q 358 904 300 904 q 475 917 417 904 l 481 879 q 401 849 454 865 q 382 547 386 749 q 520 535 438 535 q 651 546 603 535 q 636 879 647 763 q 824 1084 688 976 q 1056 1192 960 1192 q 1096 1156 1093 1192 q 1026 1043 1053 1108 l 1017 1042 q 967 1063 1004 1063 q 896 1050 931 1063 q 882 904 882 1014 l 881 453 q 901 47 881 165 q 999 24 963 38 l 994 -12 z "},"I":{"ha":535,"x_min":54,"x_max":485,"o":"m 399 857 q 382 465 382 750 q 401 47 382 179 q 485 24 456 38 l 481 -12 q 263 0 381 0 q 63 -12 146 0 l 57 25 q 135 51 88 42 q 153 443 153 188 q 132 853 153 699 q 54 879 85 863 l 60 917 q 260 904 143 904 q 478 917 378 904 l 482 881 q 399 857 453 867 z "},"J":{"ha":533,"x_min":-139,"x_max":479,"o":"m 121 922 q 219 913 139 922 q 357 904 299 904 q 474 917 415 904 l 479 879 q 400 849 453 865 q 381 445 381 704 q 399 51 381 186 q -18 -253 258 -128 l -42 -224 q 110 -34 69 -139 q 151 228 151 71 l 151 492 q 140 808 151 661 q 3 778 31 806 q -10 706 -10 743 q 11 657 -10 669 l 10 647 q -103 578 -56 621 q -139 618 -139 581 q -56 797 -139 707 q 121 922 26 888 z "},"K":{"ha":949,"x_min":-139,"x_max":1226,"o":"m 524 657 q 547 697 524 657 q 579 766 571 736 q 588 832 588 796 q 557 892 588 868 l 561 914 q 756 904 636 904 q 936 917 876 904 l 942 879 q 864 853 914 864 l 610 593 l 899 44 q 996 -83 947 -49 q 1103 -28 1096 -72 l 1114 -24 q 1222 -100 1163 -72 q 1226 -117 1226 -108 q 1187 -154 1226 -143 q 1106 -165 1147 -165 q 841 -109 985 -165 q 594 28 697 -53 q 603 96 603 58 q 558 279 603 171 l 482 464 l 385 364 q 404 47 389 158 q 488 24 458 38 l 483 -12 q 266 0 383 0 q 65 -12 149 0 l 60 25 q 138 51 90 42 q 156 417 156 188 q 140 808 156 646 l 139 808 q 3 778 29 804 q -10 706 -10 743 q 11 657 -10 669 l 10 647 q -103 578 -56 621 q -139 618 -139 581 q -56 797 -139 707 q 121 922 26 888 q 219 913 139 922 q 357 904 299 904 q 474 917 415 904 l 479 879 q 400 849 453 865 q 385 457 385 726 q 524 657 476 578 z "},"L":{"ha":724,"x_min":54,"x_max":743,"o":"m 114 -24 q 153 430 153 161 q 132 853 153 699 q 54 879 85 863 l 60 917 q 260 904 143 904 q 478 917 378 904 l 482 881 q 399 857 453 867 q 382 479 382 750 q 393 97 382 208 q 467 88 418 88 q 601 122 553 88 q 614 194 614 157 q 593 244 614 232 l 594 254 q 707 324 660 281 q 743 283 743 321 q 660 104 743 194 q 483 -21 578 14 q 183 35 342 -21 q 149 -32 164 11 l 114 -24 z "},"M":{"ha":1199,"x_min":-69,"x_max":1197,"o":"m 203 922 q 301 913 221 922 q 442 904 381 904 q 550 915 504 904 l 554 890 q 507 843 507 878 q 542 661 507 817 q 603 393 578 506 l 611 354 l 625 358 q 744 843 629 436 q 708 889 744 878 l 713 913 q 904 904 783 904 q 1097 915 1025 904 l 1104 881 q 1039 856 1076 865 q 1031 728 1031 817 q 1054 399 1031 640 q 1100 47 1078 158 q 1197 24 1161 38 l 1193 -12 q 986 0 1104 0 q 786 -12 868 0 l 781 25 q 844 51 807 42 q 799 663 842 372 l 789 664 q 686 314 707 410 q 665 146 665 218 q 457 42 546 104 l 439 51 q 440 97 440 67 q 394 367 440 200 q 296 664 349 533 l 285 663 l 268 482 q 254 151 254 328 q 313 15 254 46 l 308 -7 q 169 0 243 0 q 22 -11 96 0 l 17 26 q 94 51 43 40 l 218 808 q 72 778 99 804 q 60 706 60 743 q 81 657 60 669 l 79 647 q -33 578 14 621 q -69 618 -69 581 q 18 799 -69 708 q 203 922 106 890 z "},"N":{"ha":981,"x_min":-139,"x_max":946,"o":"m 136 51 q 154 397 154 188 q 138 808 154 606 q 3 778 25 800 q -10 706 -10 743 q 11 657 -10 669 l 10 647 q -103 578 -56 621 q -139 618 -139 581 q -51 799 -139 708 q 133 922 36 890 q 231 913 151 922 q 366 904 311 904 q 467 915 421 904 l 471 890 q 438 849 438 881 q 446 789 438 817 q 518 643 454 761 q 710 315 582 525 l 715 318 l 715 449 q 692 777 715 688 q 586 888 669 867 l 590 917 q 765 904 671 904 q 942 917 858 904 l 946 881 q 849 857 910 867 q 835 698 842 822 q 828 369 828 574 q 849 47 828 165 q 946 24 901 39 l 942 -12 q 765 0 856 0 q 603 -8 675 0 q 544 168 603 51 q 272 640 486 285 l 267 638 l 267 531 q 282 203 267 315 q 349 47 297 92 q 432 24 403 38 l 428 -12 q 230 0 313 0 q 64 -12 147 0 l 58 25 q 136 51 89 42 z "},"O":{"ha":914,"x_min":42,"x_max":872,"o":"m 483 925 q 774 827 675 925 q 872 534 872 729 q 764 192 872 339 q 464 -21 656 46 q 158 88 274 -21 q 42 382 42 196 q 109 641 42 525 q 301 831 176 757 l 328 815 q 290 485 290 676 q 329 229 290 343 q 392 132 350 168 q 486 96 435 96 q 572 119 538 96 q 624 431 624 238 q 478 808 624 808 q 431 779 439 808 q 503 682 457 682 l 506 674 q 447 554 465 619 q 428 549 438 549 q 381 595 399 549 q 364 685 364 642 q 483 925 364 854 z "},"P":{"ha":793,"x_min":-139,"x_max":826,"o":"m 399 810 q 388 413 388 647 q 407 47 388 179 q 490 24 461 38 l 486 -12 q 269 0 386 0 q 68 -12 151 0 l 63 25 q 140 51 93 42 q 158 407 158 188 q 142 810 158 626 q 3 779 29 806 q -10 708 -10 744 q 11 658 -10 671 l 10 649 q -103 579 -56 622 q -139 619 -139 582 q -65 789 -139 703 q 99 914 10 875 q 353 904 246 904 q 513 904 460 904 q 611 900 565 904 q 700 882 657 896 q 769 843 743 868 q 826 668 826 789 q 721 464 826 547 q 476 381 615 381 q 440 382 451 381 l 446 446 l 463 446 q 576 643 576 446 q 549 769 576 725 q 453 814 522 814 q 399 810 422 814 z "},"Q":{"ha":897,"x_min":42,"x_max":1097,"o":"m 597 -289 q 414 -181 517 -226 q 223 -135 311 -135 q 75 -185 135 -135 l 50 -162 q 181 -53 100 -103 q 342 19 261 -4 q 403 7 369 15 l 400 8 q 500 56 457 13 q 567 164 543 99 q 613 431 613 293 q 581 685 613 586 q 413 808 540 808 q 335 786 367 808 q 286 510 286 668 q 308 336 286 403 q 432 208 349 208 q 479 238 471 208 q 407 335 453 335 l 404 343 q 463 463 444 397 q 482 468 472 468 q 528 422 511 468 q 546 332 546 375 q 426 92 546 163 q 386 90 406 90 q 150 161 246 90 q 42 409 42 242 q 161 720 42 576 q 461 925 281 864 q 755 827 654 925 q 856 538 856 729 q 824 332 856 428 q 736 167 792 236 q 506 -31 639 44 q 624 -90 533 -43 q 775 -158 715 -137 q 894 -178 835 -178 q 946 -87 946 -126 q 940 -68 946 -75 l 946 -57 q 999 -58 965 -58 q 1078 -46 1033 -58 q 1097 -74 1097 -57 q 959 -222 1097 -142 q 654 -335 821 -301 l 597 -289 z "},"R":{"ha":914,"x_min":-144,"x_max":943,"o":"m 393 810 q 382 413 382 647 q 401 47 382 179 q 485 24 456 38 l 481 -12 q 263 0 381 0 q 63 -12 146 0 l 57 25 q 135 51 88 42 q 153 407 153 188 q 136 810 153 626 q -3 779 24 806 q -15 708 -15 744 q 6 658 -15 671 l 4 649 q -108 579 -61 622 q -144 619 -144 582 q -70 789 -144 703 q 93 914 4 875 q 398 904 236 904 q 604 900 560 904 q 693 883 649 896 q 764 847 738 871 q 822 686 822 794 q 780 553 822 613 q 665 457 738 494 l 865 51 q 943 25 915 40 l 938 -12 q 758 0 869 0 q 567 -7 646 0 l 563 18 q 588 107 588 43 q 504 422 588 201 q 435 428 471 428 l 440 485 l 456 485 q 542 535 514 485 q 569 659 569 585 q 542 774 569 733 q 447 814 515 814 q 393 810 417 814 z "},"S":{"ha":664,"x_min":10,"x_max":644,"o":"m 10 -62 q 80 176 10 72 q 217 279 150 279 q 249 256 238 279 q 222 128 225 197 l 213 122 q 190 131 204 131 q 96 89 140 131 q 92 67 92 78 q 162 -14 92 19 q 308 -47 232 -47 q 446 83 446 -47 q 408 175 446 126 q 315 266 369 224 q 207 350 261 308 q 76 510 76 450 q 175 762 76 647 q 404 925 274 876 q 644 894 535 925 l 644 867 q 588 769 608 833 q 564 639 568 704 l 526 639 q 518 753 526 708 q 368 807 456 807 q 287 781 321 807 q 253 710 253 756 q 292 616 253 664 q 388 526 332 568 q 500 444 444 485 q 635 285 635 344 q 519 3 635 163 q 294 -201 403 -156 q 15 -129 135 -201 q 10 -62 10 -103 z "},"T":{"ha":674,"x_min":-139,"x_max":726,"o":"m 99 925 q 309 915 169 925 q 522 904 449 904 q 646 917 596 904 q 692 965 672 935 l 726 946 q 639 740 671 869 l 599 757 q 440 794 531 786 q 431 419 431 658 q 450 47 431 179 q 533 24 504 38 l 529 -12 q 312 0 429 0 q 111 -12 194 0 l 106 25 q 183 51 136 42 q 201 410 201 188 q 186 807 201 633 q 105 817 160 817 q 3 790 50 817 q -10 719 -10 756 q 11 669 -10 682 l 10 660 q -103 590 -56 633 q -139 631 -139 593 q -65 800 -139 714 q 99 925 10 886 z "},"U":{"ha":993,"x_min":-139,"x_max":943,"o":"m 3 778 q -10 706 -10 743 q 11 657 -10 669 l 10 647 q -103 578 -56 621 q -139 618 -139 581 q -51 799 -139 708 q 133 922 36 890 q 222 913 153 922 q 342 904 290 904 q 429 915 394 904 l 433 890 q 388 844 400 872 q 365 698 375 817 q 356 458 356 579 q 356 313 356 336 q 360 251 357 289 q 372 194 364 214 q 393 154 379 175 q 483 115 419 115 q 607 163 546 115 q 611 461 611 224 q 590 853 611 699 q 513 879 543 863 l 518 917 q 719 904 601 904 q 936 917 836 904 l 940 881 q 857 857 911 867 q 840 465 840 750 q 860 47 840 179 q 943 24 914 38 l 939 -12 q 756 0 839 0 q 590 -12 674 0 l 585 13 q 603 92 597 32 q 421 -21 532 24 q 185 64 250 -21 q 119 335 119 149 q 129 586 119 414 q 139 778 139 758 q 138 808 139 797 q 3 778 25 800 z "},"V":{"ha":908,"x_min":-139,"x_max":938,"o":"m 692 -12 q 480 0 608 0 q 269 -7 351 0 l 265 15 q 313 57 313 28 q 163 735 313 154 q 139 808 149 785 q 3 778 29 804 q -10 706 -10 743 q 11 657 -10 669 l 10 647 q -103 578 -56 621 q -139 618 -139 581 q -56 797 -139 707 q 121 922 26 888 q 219 913 139 922 q 357 904 299 904 q 474 917 415 904 l 479 879 q 400 849 453 865 q 549 110 429 551 q 657 719 657 526 q 575 888 657 850 l 579 915 q 762 904 675 904 q 932 917 849 904 l 938 879 q 860 857 908 868 q 885 717 885 807 q 825 481 885 628 q 604 44 765 335 q 697 21 665 31 l 692 -12 z "},"W":{"ha":1346,"x_min":-139,"x_max":1375,"o":"m 1138 -12 q 933 0 1054 0 q 725 -11 813 0 l 721 11 q 753 28 739 15 q 768 57 768 40 q 717 371 768 142 q 604 44 696 308 q 669 21 629 28 l 664 -12 q 466 0 581 0 q 269 -7 351 0 l 265 15 q 313 57 313 28 q 163 735 313 154 q 139 808 149 785 q 3 778 29 804 q -10 706 -10 743 q 11 657 -10 669 l 10 647 q -103 578 -56 621 q -139 618 -139 581 q -56 797 -139 707 q 121 922 26 888 q 183 917 135 922 q 424 903 326 903 q 645 903 521 903 q 925 917 769 903 l 929 881 q 846 856 890 865 q 994 110 872 561 q 1094 719 1094 538 q 1013 888 1094 850 l 1017 915 q 1199 904 1113 904 q 1369 917 1286 904 l 1375 879 q 1297 857 1346 868 q 1322 718 1322 807 q 1265 484 1322 629 q 1050 44 1207 339 q 1143 21 1111 31 l 1138 -12 m 649 719 q 628 828 649 797 q 540 858 608 858 q 401 840 471 858 q 549 110 426 561 q 649 719 649 538 z "},"X":{"ha":899,"x_min":-139,"x_max":938,"o":"m 525 593 q 608 822 608 768 q 576 892 608 875 l 582 914 q 751 904 660 904 q 925 917 842 904 l 931 879 q 853 853 893 861 q 574 525 717 715 l 860 49 q 938 25 910 38 l 932 -12 q 738 0 849 0 q 561 -8 628 0 l 556 13 q 561 61 561 24 q 415 383 561 147 q 329 49 329 153 q 406 24 364 42 l 401 -12 q 206 0 318 0 q 10 -12 93 0 l 3 24 q 89 51 33 39 q 365 454 268 318 l 139 808 q 3 778 29 804 q -10 706 -10 743 q 11 657 -10 669 l 10 647 q -103 578 -56 621 q -139 618 -139 581 q -56 797 -139 707 q 121 922 26 888 q 228 913 139 922 q 381 904 318 904 q 503 917 444 904 l 508 879 q 428 849 483 867 q 446 747 428 800 q 525 593 464 693 z "},"Y":{"ha":764,"x_min":-278,"x_max":831,"o":"m 275 382 l 275 417 l 50 864 q -47 992 1 957 q -154 936 -147 981 l -165 932 q -274 1008 -214 981 q -278 1025 -278 1017 q -238 1063 -278 1051 q -157 1074 -199 1074 q 108 1017 -36 1074 q 354 881 251 961 q 346 813 346 850 q 390 629 346 725 l 447 504 q 522 738 506 678 q 538 838 538 799 q 507 892 538 876 l 511 914 q 678 904 601 904 q 825 917 756 904 l 831 881 q 750 853 797 863 l 506 456 q 524 47 506 181 q 607 24 583 35 l 603 -12 q 391 0 514 0 q 185 -12 268 0 l 179 25 q 258 51 208 40 q 275 382 275 176 z "},"Z":{"ha":703,"x_min":-29,"x_max":981,"o":"m 114 0 q 6 -32 64 0 l -18 -8 q 108 164 51 65 l 471 794 l 418 775 l 333 799 q 228 817 257 817 q 113 790 160 817 q 100 719 100 756 q 121 669 100 682 l 119 660 q 7 590 54 633 q -29 631 -29 593 q 54 803 -29 713 q 228 933 138 894 q 408 919 299 933 q 615 904 517 904 q 763 953 714 904 l 793 928 q 740 867 764 897 q 683 763 714 826 l 353 82 q 486 -6 411 57 q 631 -112 561 -68 q 778 -156 701 -156 q 831 -65 831 -107 q 822 -46 831 -53 l 831 -35 q 891 -39 856 -39 q 960 -24 926 -39 q 981 -51 981 -32 q 845 -184 981 -117 q 538 -285 710 -251 l 494 -240 q 114 0 261 0 z "},"[":{"ha":453,"x_min":113,"x_max":411,"o":"m 372 -272 q 122 -293 208 -272 l 113 -286 q 126 344 126 -190 q 113 975 126 879 l 122 982 q 372 961 208 961 q 411 961 390 961 l 411 932 q 228 908 303 929 l 228 -219 q 411 -243 303 -240 l 411 -272 q 372 -272 390 -272 z "},"\\":{"ha":488,"x_min":19,"x_max":458,"o":"m 382 -62 l 375 -62 l 128 664 q 19 967 64 854 q 57 978 21 967 q 106 996 93 989 l 111 996 q 207 685 147 864 l 358 243 q 458 -24 403 114 q 382 -62 450 -33 z "},"]":{"ha":453,"x_min":42,"x_max":340,"o":"m 81 961 q 331 982 244 961 l 340 975 q 326 344 326 879 q 340 -286 326 -190 l 331 -293 q 81 -272 244 -272 q 42 -272 63 -272 l 42 -243 q 225 -219 150 -240 l 225 908 q 42 932 150 929 l 42 961 q 81 961 63 961 z "},"^":{"ha":719,"x_min":63,"x_max":657,"o":"m 360 764 l 110 386 l 63 411 q 194 658 143 554 q 321 953 244 763 l 394 967 q 526 660 474 772 q 657 411 579 549 l 610 386 l 360 764 z "},"_":{"ha":911,"x_min":10,"x_max":901,"o":"m 21 -179 q 548 -192 257 -192 q 893 -187 839 -192 l 901 -196 l 890 -271 l 21 -271 l 10 -261 l 21 -179 z "},"`":{"ha":378,"x_min":0,"x_max":378,"o":"m 35 1090 q 66 1093 43 1093 q 101 1089 89 1093 q 378 821 204 915 l 364 788 l 0 922 q 12 1015 1 960 q 35 1090 22 1069 z "},"a":{"ha":789,"x_min":-19,"x_max":738,"o":"m 443 256 q 356 264 417 264 q 264 257 294 264 q 247 108 247 147 q 296 13 247 35 l 292 -10 q 153 0 247 0 q -14 -12 60 0 l -19 21 q 46 44 6 33 l 229 700 q 160 731 185 715 l 168 763 q 447 750 263 750 q 732 764 632 750 l 735 733 q 668 713 707 721 q 654 384 654 611 q 671 40 654 157 q 738 22 703 33 l 735 -10 q 562 0 665 0 q 385 -11 458 0 l 379 22 q 431 43 397 32 q 443 256 440 136 m 444 381 q 432 671 444 564 q 386 679 415 679 q 336 672 357 679 l 276 350 q 358 344 315 344 q 444 350 400 344 l 444 381 z "},"b":{"ha":790,"x_min":63,"x_max":749,"o":"m 63 744 l 426 756 q 658 726 607 756 q 701 685 682 713 q 719 609 719 658 q 670 508 719 560 q 556 428 621 456 l 556 418 q 749 269 749 418 q 688 140 749 206 q 545 33 626 75 q 392 -21 464 -8 q 274 -7 346 -21 q 161 24 203 7 q 132 -31 143 1 l 97 -22 q 132 357 132 129 q 117 692 132 585 q 63 713 96 704 l 63 744 m 406 443 q 472 458 447 443 q 497 582 497 506 q 399 699 497 699 q 351 690 372 699 q 342 402 342 596 q 347 107 342 208 q 435 76 386 76 q 507 90 483 76 q 524 226 524 147 q 495 346 524 306 q 385 386 467 386 l 390 443 l 406 443 z "},"c":{"ha":631,"x_min":39,"x_max":660,"o":"m 593 175 l 617 151 q 386 -21 517 24 q 131 64 224 -21 q 39 310 39 149 q 144 601 39 472 q 417 771 250 731 q 660 749 536 771 l 658 717 q 606 706 635 717 q 571 526 574 621 l 536 526 q 521 625 524 575 q 388 674 469 674 q 308 654 333 674 q 265 390 265 554 q 303 161 265 217 q 424 103 340 103 q 593 175 507 103 z "},"d":{"ha":833,"x_min":63,"x_max":794,"o":"m 63 746 l 439 756 q 705 681 615 756 q 794 440 794 607 q 682 142 794 272 q 400 -21 569 11 q 157 25 292 -21 q 128 -31 140 4 l 100 -24 q 132 358 132 132 q 117 692 132 585 q 63 713 96 704 l 63 746 m 394 689 q 351 683 369 689 q 343 401 343 565 q 350 107 343 236 q 443 76 393 76 q 525 96 493 76 q 568 364 568 200 q 394 689 568 689 z "},"e":{"ha":635,"x_min":39,"x_max":660,"o":"m 419 103 q 593 175 506 103 l 617 151 q 383 -21 511 22 q 131 63 222 -21 q 39 310 39 147 q 144 601 39 472 q 415 771 249 731 q 660 749 533 771 l 658 717 q 606 706 635 717 q 571 526 572 618 l 536 526 q 521 625 524 575 q 386 674 468 674 q 307 654 336 674 q 268 451 274 574 q 384 436 314 436 q 497 479 454 436 l 526 471 q 511 374 511 421 q 524 269 511 326 l 490 264 q 465 349 476 296 q 372 356 429 356 q 265 344 314 356 q 276 222 265 271 q 322 138 286 174 q 419 103 357 103 z "},"f":{"ha":617,"x_min":67,"x_max":626,"o":"m 72 761 q 325 750 146 750 q 618 767 504 750 l 626 738 q 576 553 582 667 l 540 553 q 529 649 529 604 q 433 668 492 668 q 354 661 375 668 q 344 421 344 525 q 393 415 367 415 q 521 458 481 415 l 550 450 q 535 355 535 401 q 547 249 535 308 l 514 243 q 489 328 499 279 q 412 335 454 335 q 344 331 369 335 q 361 40 346 138 q 428 19 400 32 l 425 -11 q 250 0 346 0 q 71 -12 154 0 l 67 21 q 119 43 89 33 q 135 360 135 139 q 118 707 135 582 q 67 728 85 718 l 72 761 z "},"g":{"ha":707,"x_min":39,"x_max":688,"o":"m 302 160 q 310 148 302 160 q 348 119 318 136 q 411 103 378 103 q 465 107 444 103 l 460 222 q 449 300 457 272 q 378 322 424 314 l 381 351 q 448 347 407 347 q 559 363 489 347 q 672 407 629 379 l 688 383 q 649 339 661 361 q 622 -8 631 174 l 593 -8 q 563 82 575 56 q 383 -21 492 15 q 131 64 222 -21 q 39 310 39 149 q 144 601 39 472 q 415 771 249 731 q 685 743 554 771 l 683 711 q 631 700 660 711 q 596 521 596 606 l 561 521 q 546 619 549 569 q 392 674 488 674 q 307 653 336 674 q 277 528 289 608 q 265 393 265 449 q 267 303 265 338 q 278 227 269 269 q 302 160 286 185 z "},"h":{"ha":914,"x_min":65,"x_max":864,"o":"m 568 368 q 456 376 525 376 q 346 368 388 376 q 361 47 346 154 q 428 29 392 42 l 425 -3 q 252 7 356 7 q 75 -4 149 7 l 69 29 q 121 50 88 39 q 135 377 135 165 q 118 714 135 589 q 65 736 88 724 l 69 769 q 248 757 153 757 q 422 768 343 757 l 425 738 q 358 717 397 725 q 346 468 346 651 q 461 457 396 457 q 568 467 526 457 q 556 714 567 622 q 503 736 525 724 l 507 769 q 686 757 590 757 q 861 768 782 757 l 864 738 q 797 717 836 725 q 779 382 779 615 q 797 47 779 149 q 864 29 828 42 l 861 -3 q 688 7 792 7 q 510 -4 583 7 l 504 29 q 556 50 522 39 q 568 368 567 143 z "},"i":{"ha":479,"x_min":65,"x_max":428,"o":"m 119 43 q 135 358 135 139 q 118 707 135 578 q 65 729 88 717 l 69 763 q 249 750 153 750 q 424 761 344 750 l 426 731 q 360 710 399 718 q 344 382 344 607 q 361 40 344 157 q 428 22 392 33 l 425 -10 q 251 0 356 0 q 74 -11 147 0 l 68 22 q 119 43 86 32 z "},"j":{"ha":485,"x_min":-26,"x_max":421,"o":"m 368 707 q 350 353 350 563 q 365 11 350 143 q -6 -253 249 -136 l -26 -228 q 106 -64 71 -154 q 142 164 142 26 l 142 393 q 126 710 142 603 q 60 731 88 718 l 63 761 q 238 750 142 750 q 417 763 333 750 l 421 729 q 368 707 399 717 z "},"k":{"ha":790,"x_min":47,"x_max":835,"o":"m 326 386 q 463 584 431 522 q 494 685 494 646 q 469 738 494 724 l 474 758 q 643 750 535 750 q 804 761 751 750 l 808 728 q 744 707 778 714 l 517 479 l 769 43 q 835 21 806 36 l 829 -12 q 658 0 765 0 q 490 -7 550 0 l 486 15 q 507 82 507 36 q 488 184 507 128 q 408 383 469 240 l 326 301 q 343 40 329 143 q 410 22 375 33 l 407 -10 q 233 0 338 0 q 56 -11 129 0 l 50 22 q 101 43 68 32 q 117 358 117 139 q 100 707 117 578 q 47 729 69 717 l 51 763 q 231 750 135 750 q 406 761 326 750 l 408 731 q 342 710 381 718 q 326 386 326 610 z "},"l":{"ha":575,"x_min":65,"x_max":608,"o":"m 118 43 q 135 377 135 176 q 118 707 135 578 q 65 729 88 717 l 69 763 q 249 750 153 750 q 424 761 344 750 l 426 731 q 360 710 399 718 l 358 710 q 344 405 344 619 q 354 90 344 190 q 428 82 379 82 q 511 99 478 82 q 528 193 524 146 l 564 193 q 608 10 564 63 l 601 -15 q 340 0 497 0 q 72 -11 183 0 l 67 22 q 118 43 85 32 z "},"m":{"ha":1069,"x_min":10,"x_max":1047,"o":"m 375 96 q 272 550 375 261 l 263 549 l 244 399 q 221 123 221 207 q 269 14 221 39 l 267 -6 q 147 0 222 0 q 14 -8 71 0 l 10 22 q 75 43 36 36 l 183 703 q 118 731 142 714 l 126 763 q 303 750 200 750 q 486 760 407 750 l 490 736 q 450 697 450 728 q 525 331 450 676 l 532 299 l 543 301 q 646 694 544 328 q 617 733 646 725 l 621 758 q 790 750 682 750 q 974 760 899 750 l 982 728 q 926 707 963 719 q 919 607 919 681 q 941 335 919 533 q 981 40 963 136 q 1047 22 1011 33 l 1044 -10 q 872 0 975 0 q 694 -11 768 0 l 689 22 q 740 43 707 32 q 703 549 738 308 l 694 550 q 609 260 626 339 q 592 122 592 182 q 389 49 479 104 l 375 57 l 375 96 z "},"n":{"ha":899,"x_min":63,"x_max":849,"o":"m 118 43 q 135 369 135 171 q 115 707 135 568 q 63 729 85 717 l 67 763 q 260 750 150 750 q 432 761 369 750 l 436 738 q 410 699 410 726 q 448 601 410 672 q 647 267 486 529 l 651 269 l 651 379 q 632 646 651 575 q 543 733 613 717 l 547 760 q 688 750 608 750 q 846 761 768 750 l 849 731 q 782 710 821 718 q 764 378 764 604 q 782 40 764 151 q 849 22 813 33 l 846 -10 q 682 0 776 0 q 539 -7 588 0 q 504 100 539 33 q 253 524 464 176 l 247 522 l 247 432 q 260 167 247 256 q 315 40 272 78 q 382 22 346 33 l 379 -10 q 228 0 310 0 q 72 -11 146 0 l 67 22 q 118 43 85 32 z "},"o":{"ha":800,"x_min":39,"x_max":761,"o":"m 400 -21 q 138 69 238 -21 q 39 316 39 160 q 144 601 39 472 q 415 771 250 731 q 669 688 578 771 q 761 440 761 604 q 663 148 761 276 q 400 -21 564 19 m 494 606 q 448 653 478 633 q 378 672 418 672 q 310 654 338 672 q 267 389 267 550 q 289 205 267 274 q 344 107 311 136 q 418 78 376 78 q 490 97 460 78 q 533 357 533 194 q 494 606 533 539 z "},"p":{"ha":731,"x_min":64,"x_max":729,"o":"m 64 744 l 431 756 q 672 706 607 756 q 729 559 729 660 q 635 390 729 458 q 419 321 540 321 q 388 322 399 321 l 394 379 l 408 379 q 503 550 503 379 q 481 660 503 621 q 400 699 458 699 q 357 693 382 699 q 344 379 344 600 q 360 40 344 158 l 361 40 q 428 22 392 33 l 425 -10 q 251 0 356 0 q 74 -11 147 0 l 68 22 q 119 43 86 32 q 135 354 135 175 q 118 692 135 533 q 64 713 97 704 l 64 744 z "},"q":{"ha":786,"x_min":38,"x_max":819,"o":"m 326 -118 q 200 -162 253 -118 l 175 -139 q 347 -19 251 -56 q 123 81 208 -7 q 38 301 38 168 q 141 600 38 469 q 410 771 244 731 q 658 687 568 771 q 747 448 747 603 q 668 174 747 293 q 450 0 589 54 q 598 -42 497 -6 q 749 -83 699 -79 q 800 -61 779 -76 l 819 -87 q 658 -279 738 -144 l 629 -256 q 326 -118 460 -118 m 453 644 q 374 672 419 672 q 303 653 328 672 q 263 388 263 550 q 285 202 263 271 q 339 104 307 133 q 413 75 371 75 q 481 94 454 75 q 525 354 525 197 q 453 644 525 586 z "},"r":{"ha":810,"x_min":64,"x_max":839,"o":"m 64 744 l 429 756 q 639 725 567 756 q 728 567 728 686 q 691 453 728 506 q 594 369 654 400 l 774 43 q 839 21 811 36 l 833 -12 q 663 0 769 0 q 497 -7 556 0 l 493 15 q 514 99 514 36 q 446 343 514 161 q 388 347 421 347 l 393 404 l 407 404 q 500 551 500 404 q 399 697 500 697 q 357 693 375 697 q 344 363 344 581 q 358 40 344 144 l 360 40 q 426 22 390 33 l 424 -10 q 250 0 354 0 q 72 -11 146 0 l 67 22 q 118 43 85 32 q 135 361 135 193 q 118 692 135 529 q 64 713 97 704 l 64 744 z "},"s":{"ha":590,"x_min":-1,"x_max":561,"o":"m 282 96 q 355 113 325 96 q 385 163 385 131 q 335 233 385 194 q 224 304 285 271 q 114 381 164 338 q 64 464 64 425 q 158 649 64 553 q 347 771 251 744 q 561 744 464 771 l 561 722 q 490 522 500 667 l 454 522 q 447 617 454 588 q 317 661 392 661 q 247 646 278 661 q 215 602 215 631 q 267 536 215 574 q 383 466 319 499 q 498 390 446 433 q 550 308 550 346 q 451 122 550 231 q 267 -21 351 14 q 72 6 168 -21 q 24 -37 50 -7 l -1 -14 q 82 238 82 79 l 117 238 l 122 158 q 282 96 188 96 z "},"t":{"ha":661,"x_min":-28,"x_max":694,"o":"m 218 43 q 232 344 232 158 q 221 663 232 529 q 154 668 199 668 q 72 649 110 668 q 61 553 61 597 l 22 553 q -28 738 17 667 l -19 767 q 333 750 94 750 q 686 767 572 750 l 694 738 q 644 553 650 667 l 608 553 q 597 649 597 604 q 516 668 560 668 q 451 661 472 668 q 442 333 442 508 q 458 40 442 157 l 460 40 q 526 19 499 32 l 524 -11 q 349 0 444 0 q 169 -12 253 0 l 165 21 q 218 43 188 33 z "},"u":{"ha":893,"x_min":81,"x_max":840,"o":"m 771 710 q 758 385 758 619 q 774 40 758 151 q 840 22 806 33 l 838 -10 q 692 0 776 0 q 532 -12 607 0 l 526 10 q 542 76 536 26 q 389 -18 482 18 q 183 52 242 -18 q 125 278 125 122 q 134 487 125 344 q 143 657 143 629 q 133 707 143 685 q 81 726 99 717 l 86 760 q 248 750 156 750 q 396 758 340 750 l 400 736 q 361 697 372 721 q 335 319 335 639 q 360 146 335 183 q 439 106 386 106 q 546 144 492 106 q 549 398 549 214 q 532 707 549 582 q 479 729 501 717 l 483 763 q 663 750 567 750 q 838 761 758 750 l 840 731 q 774 710 813 718 l 771 710 z "},"v":{"ha":806,"x_min":10,"x_max":786,"o":"m 572 -14 q 390 0 492 0 q 190 -10 288 0 l 189 13 q 228 46 228 22 q 103 610 228 124 q 64 710 83 678 q 10 728 25 719 l 15 761 q 201 750 88 750 q 382 761 314 750 l 386 731 q 319 710 349 715 q 443 92 344 458 q 533 597 533 440 q 465 736 533 704 l 468 760 q 638 750 556 750 q 782 761 721 750 l 786 729 q 722 708 763 718 q 743 594 743 668 q 694 402 743 521 q 510 39 646 283 q 576 18 550 28 l 572 -14 z "},"w":{"ha":1188,"x_min":10,"x_max":1168,"o":"m 954 -14 q 780 0 876 0 q 586 -10 683 0 l 585 13 q 626 51 626 21 q 582 310 626 115 q 493 44 554 225 q 546 25 513 31 l 540 -10 q 367 0 478 0 q 190 -8 257 0 l 189 15 q 228 50 228 24 q 103 610 228 125 q 64 710 85 675 q 10 728 36 715 l 15 761 q 379 749 129 749 q 772 761 629 749 l 776 731 q 710 710 739 715 q 833 92 731 475 q 915 597 915 446 q 847 736 915 704 l 850 760 q 1015 750 938 750 q 1164 761 1092 750 l 1168 729 q 1104 708 1140 718 q 1125 592 1125 667 q 1077 401 1125 517 q 892 39 1029 286 q 958 18 925 31 l 954 -14 m 526 590 q 509 679 526 654 q 437 704 492 704 q 322 690 382 704 q 443 92 342 469 q 526 590 526 451 z "},"x":{"ha":738,"x_min":-19,"x_max":779,"o":"m 419 515 q 493 685 493 647 q 468 738 493 724 l 472 758 q 625 750 542 750 q 768 761 708 750 l 772 728 q 708 707 746 714 q 475 433 603 601 l 710 43 q 779 21 754 33 l 774 -12 q 592 0 692 0 q 436 -7 493 0 l 432 11 q 439 39 439 21 q 321 289 439 100 q 244 39 247 104 q 307 19 281 32 l 304 -12 q 144 0 236 0 q -15 -12 51 0 l -19 21 q 33 40 1 32 q 264 375 171 244 l 61 710 q 10 729 29 718 l 14 763 q 213 750 96 750 q 408 761 329 750 l 411 731 q 344 710 386 718 q 358 635 344 671 q 419 515 371 600 z "},"y":{"ha":689,"x_min":-29,"x_max":729,"o":"m 392 417 q 465 682 465 638 q 440 738 465 726 l 444 758 q 590 750 507 750 q 725 760 674 750 l 729 726 q 663 704 704 713 l 449 376 q 465 40 449 165 q 532 22 497 33 l 529 -10 q 356 0 460 0 q 178 -11 251 0 l 172 22 q 224 43 190 32 q 239 315 239 171 l 239 346 q 64 672 110 615 q 25 710 49 690 q -29 728 -14 719 l -24 761 q 162 750 49 750 q 343 761 275 750 l 347 731 q 281 710 310 715 q 304 640 285 699 q 332 556 324 581 q 392 417 360 474 z "},"z":{"ha":615,"x_min":-25,"x_max":644,"o":"m 14 771 q 216 756 51 771 q 458 740 381 740 q 564 749 536 740 q 619 783 592 758 l 644 763 q 564 635 613 735 l 307 106 l 313 101 l 379 101 q 511 153 469 101 q 517 233 517 176 l 551 236 q 639 -10 565 65 l 608 -29 q 585 -7 601 -21 q 178 19 408 19 q 0 -25 36 19 l -25 -4 q 64 133 -1 21 l 364 651 l 358 658 l 261 658 q 132 615 171 658 q 100 529 117 564 l 65 536 q 71 621 71 565 q 60 715 71 676 q 7 735 38 728 l 14 771 z "},"{":{"ha":417,"x_min":61,"x_max":319,"o":"m 311 -299 q 176 -220 242 -279 q 110 -99 110 -161 q 135 72 110 -36 q 161 246 161 181 q 131 298 161 274 q 67 328 101 322 l 61 354 q 129 388 97 363 q 161 443 161 413 q 135 617 161 508 q 110 788 110 725 q 176 909 110 850 q 311 988 242 968 l 318 963 q 214 839 242 924 q 245 643 214 774 q 276 457 276 513 q 150 347 257 410 l 150 342 q 276 232 257 279 q 245 46 276 176 q 214 -150 214 -85 q 319 -272 240 -232 l 311 -299 z "},"|":{"ha":331,"x_min":114,"x_max":213,"o":"m 210 -276 l 133 -300 l 124 -296 q 114 1004 124 661 q 142 1014 121 1007 q 206 1042 193 1033 l 213 1040 q 210 -276 210 843 z "},"}":{"ha":400,"x_min":97,"x_max":356,"o":"m 106 988 q 241 909 175 968 q 307 788 307 850 q 281 617 307 725 q 256 443 256 508 q 288 388 256 413 q 356 354 319 363 l 350 328 q 285 298 315 322 q 256 246 256 274 q 281 72 256 181 q 307 -99 307 -36 q 241 -220 307 -161 q 106 -299 175 -279 l 97 -272 q 193 -150 165 -237 q 162 46 193 -85 q 131 232 131 176 q 267 342 147 272 l 267 347 q 131 457 147 417 q 162 643 131 513 q 193 839 193 774 q 99 963 164 929 l 106 988 z "},"~":{"ha":885,"x_min":0,"x_max":885,"o":"m 640 378 q 851 508 765 378 l 885 486 q 770 322 849 399 q 613 217 692 246 q 414 292 553 217 q 215 368 275 368 q 35 247 97 368 l 0 269 q 126 445 40 364 q 292 538 213 526 q 465 424 369 471 q 640 378 561 378 z "}," ":{"ha":250,"x_min":0,"x_max":0,"o":""},"¡":{"ha":403,"x_min":51,"x_max":356,"o":"m 93 589 q 151 651 113 618 q 224 701 190 683 q 299 651 261 685 q 356 589 338 618 q 297 515 339 558 q 224 450 256 471 q 150 515 192 472 q 93 589 108 558 m 144 -299 q 133 -299 139 -299 q 51 -215 79 -267 q 139 56 108 -60 q 197 339 169 172 l 261 346 l 314 -253 q 144 -299 236 -299 z "},"¢":{"ha":750,"x_min":108,"x_max":729,"o":"m 465 743 l 464 838 q 518 869 496 851 l 526 865 q 517 754 518 785 l 517 750 q 729 728 633 746 l 728 696 q 675 685 704 696 q 640 506 643 600 l 606 506 q 590 604 593 554 q 511 644 561 631 l 493 258 l 486 124 l 490 124 q 663 196 576 124 l 686 172 q 479 8 596 57 l 479 -1 l 472 -154 l 464 -156 q 415 -132 436 -153 l 428 -19 l 429 0 q 197 87 285 7 q 108 310 108 167 q 211 576 108 454 q 465 743 314 697 m 457 653 q 378 633 403 653 q 347 518 358 592 q 335 365 335 444 q 355 219 335 285 q 436 132 375 153 l 446 283 l 464 653 l 457 653 z "},"£":{"ha":750,"x_min":58,"x_max":736,"o":"m 154 190 l 146 350 l 69 343 l 58 351 l 63 419 l 153 419 q 282 642 185 549 q 517 771 379 736 q 736 749 613 771 l 735 717 q 682 706 711 717 q 647 526 650 621 l 613 526 q 597 625 600 575 q 478 674 546 674 q 408 654 433 674 q 365 432 374 575 l 458 440 q 582 456 544 449 l 590 449 l 585 385 l 363 367 q 289 176 353 269 l 289 164 q 335 186 318 182 q 607 163 475 186 q 640 242 625 197 l 671 232 q 654 108 654 178 q 668 -14 654 38 l 651 -25 q 158 26 401 26 q 113 -35 135 4 l 81 -21 q 143 96 92 10 q 154 190 154 136 z "},"¤":{"ha":788,"x_min":35,"x_max":790,"o":"m 590 681 l 694 789 q 788 767 732 776 l 790 761 q 647 626 713 692 q 689 486 689 569 q 614 281 689 369 q 790 115 708 189 l 788 110 q 694 88 732 100 l 558 229 q 401 161 489 179 q 217 207 294 161 l 94 88 l 88 88 l 69 106 q 35 153 36 139 q 157 261 65 179 q 113 397 113 319 q 181 593 113 507 q 35 724 99 668 q 61 763 36 739 l 88 789 l 94 789 l 238 650 q 418 726 310 707 q 590 681 518 726 m 564 436 q 564 478 564 436 q 518 573 564 521 q 393 625 472 625 q 276 596 314 625 q 238 451 238 533 q 284 316 238 369 q 410 263 331 263 q 526 290 490 263 q 564 436 564 351 z "},"¥":{"ha":750,"x_min":-4,"x_max":754,"o":"m 1 761 q 187 750 74 750 q 368 761 300 750 l 372 731 q 306 710 335 715 q 329 640 310 699 q 357 556 349 581 q 417 417 385 474 q 490 682 490 638 q 465 738 490 726 l 469 758 q 615 750 532 750 q 750 760 699 750 l 754 726 q 688 704 729 713 l 474 376 l 474 375 q 643 382 567 378 q 657 338 657 339 l 657 329 q 474 326 607 329 q 475 264 474 283 q 643 271 565 267 q 657 226 657 228 l 657 218 q 476 215 607 218 q 490 40 479 113 q 557 22 521 33 l 554 -10 q 381 0 485 0 q 203 -11 276 0 l 197 22 q 249 43 215 32 q 263 211 260 147 l 206 210 l 74 206 l 69 214 q 93 264 88 246 l 264 264 l 264 322 l 206 321 l 74 317 l 69 325 q 93 375 88 357 l 250 375 q 86 672 129 621 q 50 710 74 689 q -4 728 11 719 l 1 761 z "},"¦":{"ha":340,"x_min":121,"x_max":219,"o":"m 217 472 l 140 449 l 131 453 q 121 1007 129 706 q 149 1017 128 1010 q 213 1044 200 1036 l 219 1043 q 217 472 217 846 m 217 -275 l 140 -299 l 131 -294 q 121 260 129 -42 q 149 269 128 263 q 213 297 200 289 l 219 296 q 217 -275 217 99 z "},"§":{"ha":656,"x_min":39,"x_max":617,"o":"m 467 308 q 408 410 467 361 q 281 493 350 460 q 153 576 211 526 q 94 678 94 625 q 365 925 200 853 q 601 893 507 925 l 601 871 q 514 726 536 806 l 500 724 q 304 813 390 813 q 261 796 278 813 q 244 749 244 779 q 303 678 244 719 q 431 604 361 638 q 558 522 500 571 q 617 424 617 472 q 493 229 575 315 l 456 256 q 467 308 467 276 m 351 -50 q 394 -33 378 -50 q 411 13 411 -17 q 353 84 411 43 q 225 158 294 125 q 97 241 156 192 q 39 339 39 290 q 163 533 81 447 l 200 507 q 190 447 188 483 q 233 372 193 411 q 326 301 272 332 q 434 238 381 269 q 524 167 488 207 q 561 85 561 128 q 290 -162 456 -90 q 54 -131 149 -162 l 54 -108 q 142 36 119 -43 l 156 39 q 351 -50 265 -50 z "},"¨":{"ha":557,"x_min":0,"x_max":557,"o":"m 249 956 q 195 885 235 926 q 125 824 156 844 q 55 885 94 844 q 0 956 15 926 q 53 1015 17 983 q 125 1061 90 1046 q 194 1013 157 1044 q 249 956 231 982 m 557 956 q 503 885 543 926 q 433 824 464 844 q 363 885 403 844 q 308 956 324 926 q 362 1015 325 983 q 433 1061 399 1046 q 502 1013 465 1044 q 557 956 539 982 z "},"©":{"ha":1063,"x_min":58,"x_max":1004,"o":"m 197 117 q 127 186 197 117 q 58 451 58 256 q 197 786 58 647 q 531 925 335 925 q 865 786 726 925 q 1004 451 1004 647 q 865 117 1004 256 q 531 -21 726 -21 q 197 117 335 -21 m 531 854 q 448 854 531 854 q 249 736 365 854 q 132 452 132 618 q 249 168 132 286 q 531 50 365 50 q 813 168 696 50 q 931 451 931 286 q 813 735 931 617 q 531 854 696 854 m 551 257 q 679 307 610 257 l 696 292 q 525 165 626 203 q 281 399 281 165 q 353 608 281 518 q 549 738 426 697 q 726 721 639 738 l 725 696 q 683 688 703 696 q 663 551 663 626 l 638 551 q 624 622 625 590 q 539 658 585 658 q 478 644 493 658 q 450 464 450 579 q 494 274 450 307 q 551 257 517 257 z "},"ª":{"ha":626,"x_min":33,"x_max":610,"o":"m 224 360 q 87 428 140 360 q 33 595 33 496 q 113 786 33 694 q 307 925 192 878 q 497 894 393 925 q 535 963 522 925 l 564 954 q 539 596 539 847 q 549 419 539 486 q 610 406 579 406 l 610 381 q 356 360 483 381 l 349 368 q 369 543 369 458 l 360 544 q 224 360 321 440 m 244 826 q 226 624 226 753 q 263 494 226 494 q 304 527 279 494 q 351 622 329 560 q 349 800 351 733 q 282 832 325 832 q 244 826 261 832 z "},"«":{"ha":682,"x_min":39,"x_max":619,"o":"m 199 413 l 356 124 l 328 104 q 258 183 306 128 q 185 267 210 239 q 39 393 110 349 l 39 421 q 135 492 97 454 q 186 542 174 531 q 223 581 199 554 q 256 618 247 608 q 328 699 299 664 l 354 681 l 199 413 m 463 413 l 619 151 l 592 132 q 521 202 567 156 q 449 275 475 249 q 303 393 374 347 l 303 421 q 383 477 351 451 q 429 515 414 503 q 472 554 444 528 q 510 590 500 581 q 552 632 519 600 q 592 671 585 664 l 618 653 l 463 413 z "},"¬":{"ha":800,"x_min":75,"x_max":725,"o":"m 625 317 l 86 317 l 75 326 l 88 418 q 490 406 324 406 q 710 410 656 406 l 718 401 q 725 122 718 306 l 718 114 l 625 126 l 625 317 z "},"®":{"ha":603,"x_min":29,"x_max":574,"o":"m 108 501 q 69 541 108 501 q 29 694 29 581 q 108 888 29 808 q 301 967 188 967 q 494 888 415 967 q 574 694 574 808 q 494 501 574 581 q 301 422 415 422 q 108 501 188 422 m 149 847 q 117 816 149 847 q 86 694 86 785 q 149 540 86 604 q 301 476 211 476 q 453 540 392 476 q 514 694 514 603 q 453 847 514 785 q 301 910 392 910 q 149 847 211 910 m 174 842 l 308 844 q 386 830 360 844 q 413 772 413 815 q 364 703 413 728 l 424 582 q 447 574 438 578 l 444 561 q 388 565 419 565 q 329 563 357 565 l 328 571 q 336 606 336 582 q 315 693 336 631 l 293 693 l 294 714 l 299 714 q 331 767 331 714 q 301 819 331 819 q 285 817 293 819 q 281 699 281 789 q 286 581 281 608 q 311 574 307 575 l 310 561 q 240 565 275 565 q 176 561 206 565 l 175 574 l 197 582 q 203 691 203 632 q 197 822 203 750 q 174 829 183 829 l 174 842 z "},"¯":{"ha":449,"x_min":0,"x_max":449,"o":"m 79 1013 q 265 1007 171 1007 q 438 1014 358 1007 l 449 1007 l 432 896 l 13 892 l 0 900 l 17 1017 l 79 1013 z "},"°":{"ha":510,"x_min":63,"x_max":447,"o":"m 256 550 q 118 591 174 550 q 63 712 63 632 q 120 851 63 792 q 267 926 178 911 q 397 885 347 926 q 447 763 447 843 q 394 626 447 683 q 256 550 342 568 m 242 853 q 176 836 197 853 q 158 744 158 797 q 186 657 158 690 q 263 624 214 624 q 333 640 313 624 q 351 729 351 679 q 242 853 351 853 z "},"±":{"ha":800,"x_min":74,"x_max":728,"o":"m 450 364 q 463 125 450 257 l 365 119 l 351 122 l 351 364 l 96 364 l 85 374 l 97 472 q 351 463 267 464 l 351 675 l 450 688 l 457 679 q 450 463 450 557 l 450 461 q 583 460 501 460 q 719 464 665 460 l 728 456 l 715 364 l 450 364 m 86 81 q 488 68 322 68 q 708 72 654 68 l 717 64 l 704 -14 l 85 -14 l 74 -4 l 86 81 z "},"²":{"ha":550,"x_min":19,"x_max":503,"o":"m 243 629 q 272 640 261 639 q 321 642 283 642 q 446 631 358 642 q 474 696 460 657 l 503 688 q 489 583 489 642 q 499 481 489 525 l 485 471 q 97 513 260 513 q 47 468 72 501 l 19 482 q 169 661 53 551 q 238 746 207 697 q 268 842 268 794 q 199 906 268 906 q 156 894 168 906 q 149 855 149 878 q 161 824 149 832 l 161 815 q 76 756 124 800 q 44 789 44 756 q 121 926 44 844 q 258 1036 197 1008 q 431 992 383 1036 q 478 828 478 949 q 238 636 360 718 l 243 629 z "},"³":{"ha":528,"x_min":44,"x_max":494,"o":"m 121 690 q 122 632 121 653 q 174 572 143 596 q 233 549 204 549 q 274 558 263 549 q 285 628 285 590 q 183 729 285 729 l 178 738 l 297 876 l 294 881 q 268 871 279 874 q 125 878 194 871 q 103 819 111 853 l 76 828 q 86 935 86 883 q 74 1026 86 986 l 86 1035 q 433 1010 260 1010 q 465 1038 449 1018 l 492 1018 l 322 833 q 447 769 400 826 q 494 628 494 711 q 231 471 401 532 q 44 514 133 471 l 44 531 q 93 690 88 592 l 121 690 z "},"´":{"ha":378,"x_min":0,"x_max":378,"o":"m 276 1089 q 312 1093 289 1093 q 343 1090 335 1093 q 366 1015 356 1069 q 378 922 376 960 l 14 788 l 0 821 q 276 1089 174 915 z "},"µ":{"ha":735,"x_min":24,"x_max":749,"o":"m 60 268 l 60 376 q 39 667 60 588 l 49 675 q 304 701 182 675 l 314 692 q 283 524 296 635 q 271 318 271 413 q 279 182 271 224 q 311 140 288 140 q 383 189 344 140 q 447 315 421 238 q 428 675 447 575 q 674 701 551 675 l 693 690 q 679 628 685 656 q 660 233 660 531 q 671 56 663 125 q 749 38 704 40 l 749 7 q 442 -21 597 7 l 432 -11 q 458 221 458 103 l 444 222 q 368 83 417 151 q 264 -21 319 15 l 206 -8 q 233 -250 207 -151 l 224 -258 q 33 -299 140 -264 l 24 -289 q 55 47 50 -71 q 60 268 60 164 z "},"¶":{"ha":817,"x_min":-7,"x_max":788,"o":"m 483 904 q 460 451 460 739 l 460 251 q 384 -56 460 47 q 189 -160 308 -160 q 118 -122 118 -160 q 197 -25 164 -78 l 207 -24 q 269 -40 225 -40 q 340 -28 314 -40 q 371 182 371 57 l 371 411 q 324 410 354 410 q 85 499 178 410 q -7 689 -7 588 q 64 852 -7 790 q 272 914 135 914 q 483 904 292 914 m 508 4 q 527 126 522 49 q 532 487 532 203 q 549 901 532 771 q 738 896 608 896 l 788 896 l 788 861 q 681 839 747 861 q 664 436 664 697 q 682 53 664 175 q 786 24 703 50 l 781 -11 q 617 0 696 0 q 511 -1 539 0 l 508 4 z "},"·":{"ha":357,"x_min":47,"x_max":310,"o":"m 310 396 q 253 322 294 365 q 179 257 211 279 q 106 322 147 278 q 47 396 64 365 q 103 458 65 425 q 179 508 142 492 q 251 458 213 490 q 310 396 290 425 z "},"¸":{"ha":306,"x_min":0,"x_max":306,"o":"m 150 -243 q 190 -236 174 -243 q 199 -204 199 -222 q 75 -149 199 -149 l 67 -143 l 119 19 l 174 22 l 142 -50 l 147 -54 q 306 -161 306 -54 q 136 -326 251 -265 q 0 -297 61 -326 q 50 -192 38 -240 l 56 -189 q 150 -243 89 -243 z "},"¹":{"ha":439,"x_min":33,"x_max":383,"o":"m 114 528 q 125 720 125 624 q 121 882 125 817 l 36 882 l 33 885 q 38 918 33 906 q 166 962 100 931 q 274 1032 232 993 q 324 1036 299 1036 l 328 1033 q 313 758 313 921 q 321 531 313 594 q 383 506 346 522 l 379 474 q 201 489 285 489 q 47 474 118 489 l 44 506 q 114 528 79 521 z "},"º":{"ha":590,"x_min":33,"x_max":557,"o":"m 105 423 q 69 455 105 423 q 33 592 33 486 q 114 788 33 697 q 308 925 194 879 q 494 865 432 925 q 557 696 557 806 q 482 495 557 586 q 296 360 407 404 q 105 423 176 360 m 353 738 q 351 758 353 738 q 332 807 349 778 q 290 836 315 836 q 249 826 264 836 q 232 654 232 756 q 247 501 232 553 q 307 449 263 449 q 342 458 328 449 q 358 613 358 529 q 353 738 358 697 z "},"»":{"ha":682,"x_min":63,"x_max":643,"o":"m 326 124 l 483 413 l 328 681 l 354 699 q 409 636 383 664 q 459 581 435 608 q 496 542 483 554 q 530 509 508 531 q 567 475 551 488 q 643 421 619 435 l 643 393 q 497 267 572 349 q 424 183 472 239 q 354 104 376 128 l 326 124 m 63 151 l 219 413 l 64 653 l 90 671 q 130 632 97 664 q 172 590 163 600 q 210 554 182 581 q 253 515 238 528 q 292 483 268 503 q 379 421 331 451 l 379 393 q 258 298 308 347 q 161 202 207 249 q 90 132 115 156 l 63 151 z "},"¼":{"ha":1181,"x_min":47,"x_max":1139,"o":"m 1028 364 l 1028 229 q 1119 274 1104 229 l 1139 268 q 1131 190 1131 231 q 1132 125 1131 150 l 1126 122 q 1029 125 1093 125 q 1036 58 1029 93 q 1100 38 1049 51 l 1094 6 q 919 17 1021 17 q 760 3 818 17 l 756 32 q 832 56 792 47 q 839 125 839 96 l 604 125 l 594 175 q 836 536 740 342 q 1028 564 963 547 l 1040 560 q 1028 364 1028 493 m 128 417 q 139 609 139 513 q 135 771 139 706 l 50 771 l 47 774 q 51 807 47 794 q 180 851 114 819 q 288 921 246 882 q 338 925 313 925 l 342 922 q 326 647 326 810 q 335 419 326 483 q 397 394 360 411 l 393 363 q 215 378 299 378 q 61 363 132 378 l 58 394 q 128 417 93 410 m 235 -58 q 194 -33 215 -54 q 168 -1 172 -11 q 342 222 297 163 l 694 710 q 878 978 776 824 q 971 968 901 972 l 976 964 q 788 708 932 908 l 235 -58 m 835 431 q 731 239 788 317 q 839 231 779 231 l 842 431 l 835 431 z "},"½":{"ha":1181,"x_min":51,"x_max":1118,"o":"m 235 -58 q 194 -33 215 -54 q 168 -1 172 -11 q 342 222 297 163 l 694 710 q 878 978 776 824 q 971 968 901 972 l 976 964 q 788 708 932 908 l 235 -58 m 132 417 q 143 609 143 513 q 139 771 143 706 l 54 771 l 51 774 q 56 807 51 794 q 193 852 121 821 q 306 921 265 883 q 356 925 331 925 l 360 922 q 344 647 344 810 q 353 419 344 483 q 415 394 378 411 l 411 363 q 226 378 317 378 q 65 363 136 378 l 63 394 q 132 417 97 410 m 858 158 q 888 169 876 168 q 936 171 899 171 q 1061 160 974 171 q 1089 225 1075 186 l 1118 217 q 1104 112 1104 171 q 1114 10 1104 53 l 1100 0 q 713 42 875 42 q 663 -3 688 31 l 635 11 q 783 190 668 81 q 853 275 822 226 q 883 371 883 324 q 814 435 883 435 q 771 424 783 435 q 764 384 764 407 q 776 353 764 361 l 776 344 q 692 285 739 329 q 660 318 660 285 q 736 456 660 374 q 874 565 813 538 q 1046 522 999 565 q 1093 357 1093 478 q 853 165 975 247 l 858 158 z "},"¾":{"ha":1181,"x_min":58,"x_max":1139,"o":"m 1028 364 l 1028 229 q 1119 274 1104 229 l 1139 268 q 1131 190 1131 231 q 1132 125 1131 150 l 1126 122 q 1029 125 1093 125 q 1036 58 1029 93 q 1100 38 1049 51 l 1094 6 q 919 17 1021 17 q 760 3 818 17 l 756 32 q 832 56 792 47 q 839 125 839 96 l 604 125 l 594 175 q 836 536 740 342 q 1028 564 963 547 l 1040 560 q 1028 364 1028 493 m 135 579 q 136 521 135 542 q 188 461 157 485 q 247 438 218 438 q 288 447 276 438 q 299 517 299 479 q 197 618 299 618 l 192 626 l 311 765 l 308 769 q 282 760 293 763 q 139 767 208 760 q 117 708 125 742 l 90 717 q 100 824 100 772 q 88 915 100 875 l 100 924 q 447 899 274 899 q 479 926 463 907 l 506 907 l 336 722 q 461 658 414 715 q 508 517 508 600 q 244 360 415 421 q 58 403 147 360 l 58 419 q 107 579 101 481 l 135 579 m 235 -58 q 194 -33 215 -54 q 168 -1 172 -11 q 342 222 297 163 l 694 710 q 878 978 776 824 q 971 968 901 972 l 976 964 q 788 708 932 908 l 235 -58 m 835 431 q 731 239 788 317 q 839 231 779 231 l 842 431 l 835 431 z "},"¿":{"ha":488,"x_min":-42,"x_max":497,"o":"m 125 597 q 183 659 144 626 q 256 710 222 692 q 331 660 293 693 q 388 597 369 626 q 329 523 371 567 q 256 458 288 479 q 182 524 224 481 q 125 597 140 567 m 203 -110 q 283 -196 203 -196 q 342 -185 313 -196 q 353 -116 353 -154 q 338 -64 353 -78 l 339 -54 q 461 15 413 -28 q 497 -25 497 13 q 410 -194 497 -110 q 231 -299 324 -278 q 35 -242 111 -299 q -42 -78 -42 -185 q 196 144 35 25 q 226 343 221 297 l 293 350 l 324 169 l 324 143 q 203 -110 203 43 z "},"À":{"ha":940,"x_min":-1,"x_max":890,"o":"m 821 940 q 788 472 788 764 q 807 47 788 179 q 890 24 861 38 l 886 -12 q 669 0 786 0 q 468 -12 551 0 l 463 25 q 540 51 493 42 q 557 319 551 140 q 453 325 519 325 q 342 318 388 325 q 321 133 321 183 q 333 55 321 83 q 379 13 344 26 l 375 -10 q 197 0 300 0 q 18 -12 93 0 l 13 25 q 90 51 40 40 l 293 808 q 140 778 171 808 q 128 706 128 743 q 149 657 128 669 l 147 647 q 35 578 82 621 q -1 618 -1 581 q 84 801 -1 708 q 267 925 169 893 q 743 868 479 890 q 786 950 769 896 l 821 940 m 558 453 q 549 788 558 639 l 544 792 q 422 800 496 800 l 356 418 q 463 413 406 413 q 558 418 521 413 l 558 453 m 297 1240 q 328 1244 308 1244 q 364 1240 349 1244 q 640 1029 442 1122 l 626 996 l 263 1088 q 274 1171 264 1124 q 297 1240 285 1218 z "},"Á":{"ha":940,"x_min":-1,"x_max":890,"o":"m 821 940 q 788 472 788 764 q 807 47 788 179 q 890 24 861 38 l 886 -12 q 669 0 786 0 q 468 -12 551 0 l 463 25 q 540 51 493 42 q 557 319 551 140 q 453 325 519 325 q 342 318 388 325 q 321 133 321 183 q 333 55 321 83 q 379 13 344 26 l 375 -10 q 197 0 300 0 q 18 -12 93 0 l 13 25 q 90 51 40 40 l 293 808 q 140 778 171 808 q 128 706 128 743 q 149 657 128 669 l 147 647 q 35 578 82 621 q -1 618 -1 581 q 84 801 -1 708 q 267 925 169 893 q 743 868 479 890 q 786 950 769 896 l 821 940 m 558 453 q 549 788 558 639 l 544 792 q 422 800 496 800 l 356 418 q 463 413 406 413 q 558 418 521 413 l 558 453 m 717 1226 q 751 1231 729 1231 q 783 1226 772 1231 q 806 1157 796 1204 q 818 1074 817 1110 l 454 982 l 440 1015 q 717 1226 639 1108 z "},"Â":{"ha":940,"x_min":-1,"x_max":890,"o":"m 821 940 q 788 472 788 764 q 807 47 788 179 q 890 24 861 38 l 886 -12 q 669 0 786 0 q 468 -12 551 0 l 463 25 q 540 51 493 42 q 557 319 551 140 q 453 325 519 325 q 342 318 388 325 q 321 133 321 183 q 333 55 321 83 q 379 13 344 26 l 375 -10 q 197 0 300 0 q 18 -12 93 0 l 13 25 q 90 51 40 40 l 293 808 q 140 778 171 808 q 128 706 128 743 q 149 657 128 669 l 147 647 q 35 578 82 621 q -1 618 -1 581 q 84 801 -1 708 q 267 925 169 893 q 743 868 479 890 q 786 950 769 896 l 821 940 m 558 453 q 549 788 558 639 l 544 792 q 422 800 496 800 l 356 418 q 463 413 406 413 q 558 418 521 413 l 558 453 m 499 1226 q 541 1231 513 1231 q 585 1226 569 1231 q 839 1015 664 1108 l 825 982 l 542 1068 l 258 982 l 244 1015 q 499 1226 419 1108 z "},"Ã":{"ha":940,"x_min":-1,"x_max":890,"o":"m 821 940 q 788 472 788 764 q 807 47 788 179 q 890 24 861 38 l 886 -12 q 669 0 786 0 q 468 -12 551 0 l 463 25 q 540 51 493 42 q 557 319 551 140 q 453 325 519 325 q 342 318 388 325 q 321 133 321 183 q 333 55 321 83 q 379 13 344 26 l 375 -10 q 197 0 300 0 q 18 -12 93 0 l 13 25 q 90 51 40 40 l 293 808 q 140 778 171 808 q 128 706 128 743 q 149 657 128 669 l 147 647 q 35 578 82 621 q -1 618 -1 581 q 84 801 -1 708 q 267 925 169 893 q 743 868 479 890 q 786 950 769 896 l 821 940 m 558 453 q 549 788 558 639 l 544 792 q 422 800 496 800 l 356 418 q 463 413 406 413 q 558 418 521 413 l 558 453 m 708 1160 q 828 1214 790 1160 l 861 1190 q 669 1001 757 1049 q 538 1038 632 1001 q 403 1074 443 1074 q 289 1019 324 1074 l 256 1043 q 490 1231 356 1182 q 708 1160 600 1160 z "},"Ä":{"ha":940,"x_min":-1,"x_max":890,"o":"m 821 940 q 788 472 788 764 q 807 47 788 179 q 890 24 861 38 l 886 -12 q 669 0 786 0 q 468 -12 551 0 l 463 25 q 540 51 493 42 q 557 319 551 140 q 453 325 519 325 q 342 318 388 325 q 321 133 321 183 q 333 55 321 83 q 379 13 344 26 l 375 -10 q 197 0 300 0 q 18 -12 93 0 l 13 25 q 90 51 40 40 l 293 808 q 140 778 171 808 q 128 706 128 743 q 149 657 128 669 l 147 647 q 35 578 82 621 q -1 618 -1 581 q 84 801 -1 708 q 267 925 169 893 q 743 868 479 890 q 786 950 769 896 l 821 940 m 558 453 q 549 788 558 639 l 544 792 q 422 800 496 800 l 356 418 q 463 413 406 413 q 558 418 521 413 l 558 453 m 507 1124 q 453 1053 493 1094 q 383 992 414 1013 q 313 1053 353 1013 q 258 1124 274 1094 q 312 1183 275 1151 q 383 1229 349 1214 q 452 1181 415 1213 q 507 1124 489 1150 m 815 1124 q 762 1053 801 1094 q 692 992 722 1013 q 622 1053 661 1013 q 567 1124 582 1094 q 620 1183 583 1151 q 692 1229 657 1214 q 760 1181 724 1213 q 815 1124 797 1150 z "},"Å":{"ha":940,"x_min":-1,"x_max":890,"o":"m 821 940 q 788 472 788 764 q 807 47 788 179 q 890 24 861 38 l 886 -12 q 669 0 786 0 q 468 -12 551 0 l 463 25 q 540 51 493 42 q 557 319 551 140 q 453 325 519 325 q 342 318 388 325 q 321 133 321 183 q 333 55 321 83 q 379 13 344 26 l 375 -10 q 197 0 300 0 q 18 -12 93 0 l 13 25 q 90 51 40 40 l 293 808 q 140 778 171 808 q 128 706 128 743 q 149 657 128 669 l 147 647 q 35 578 82 621 q -1 618 -1 581 q 84 801 -1 708 q 267 925 169 893 q 743 868 479 890 q 786 950 769 896 l 821 940 m 558 453 q 549 788 558 639 l 544 792 q 422 800 496 800 l 356 418 q 463 413 406 413 q 558 418 521 413 l 558 453 m 549 957 q 439 987 483 957 q 394 1076 394 1017 q 441 1183 394 1136 q 558 1244 488 1229 q 701 1128 701 1244 q 658 1021 701 1065 q 549 957 615 976 m 617 1097 q 617 1115 617 1097 q 595 1156 617 1133 q 539 1178 574 1178 q 489 1167 504 1178 q 479 1105 479 1142 q 501 1045 479 1068 q 556 1022 524 1022 q 607 1035 589 1022 q 617 1097 617 1060 z "},"Æ":{"ha":1076,"x_min":-29,"x_max":1057,"o":"m 147 800 q 135 728 135 765 q 156 679 135 692 l 154 669 q 42 600 89 643 q 6 640 6 603 q 91 823 6 731 q 274 947 176 915 q 670 904 418 904 q 1049 922 922 904 l 1057 893 q 999 667 1003 821 l 961 667 q 949 788 949 731 q 828 811 899 811 q 735 801 758 811 q 696 531 700 710 q 782 519 743 519 q 907 569 864 519 l 938 563 q 919 451 919 508 q 933 328 919 394 l 899 322 q 869 425 879 372 q 791 433 839 433 q 694 426 743 433 q 728 164 694 211 q 838 115 761 115 q 1033 200 946 115 l 1056 179 q 767 -21 932 11 q 628 1 683 -21 q 544 53 574 24 q 501 151 515 82 q 485 270 488 219 q 483 428 483 321 q 416 433 457 433 q 331 426 375 433 q 279 134 279 185 q 291 55 279 83 q 338 13 303 26 l 333 -10 q 155 0 258 0 q -24 -12 51 0 l -29 25 q 49 51 -1 40 l 300 831 q 147 800 178 831 m 349 524 q 419 518 376 518 q 489 524 463 518 l 515 744 q 518 789 518 769 q 515 825 518 808 q 466 831 497 831 q 414 826 435 831 q 349 524 360 581 z "},"Ç":{"ha":742,"x_min":42,"x_max":771,"o":"m 379 36 q 483 -1 421 -1 q 592 22 544 -1 q 696 94 640 44 l 717 74 q 442 -160 621 -89 q 146 -45 250 -160 q 42 290 42 69 q 163 678 42 510 q 481 925 283 847 q 771 899 625 925 l 769 865 q 701 853 733 865 q 661 633 661 743 l 624 633 q 607 750 610 686 q 446 808 544 808 q 350 781 381 808 q 290 414 290 626 q 379 36 290 114 m 386 -396 q 426 -389 410 -396 q 435 -357 435 -375 q 311 -301 435 -301 l 303 -296 l 356 -133 l 410 -131 l 378 -203 l 383 -207 q 542 -314 542 -207 q 372 -479 488 -418 q 236 -450 297 -479 q 286 -344 274 -393 l 292 -342 q 386 -396 325 -396 z "},"È":{"ha":739,"x_min":36,"x_max":733,"o":"m 36 246 q 116 413 36 347 q 304 478 196 478 l 304 490 q 145 548 206 500 q 83 683 85 596 q 449 925 211 843 q 644 897 561 925 q 701 947 653 903 l 733 926 q 660 790 685 857 q 622 629 635 722 l 583 629 q 575 750 583 703 q 415 808 513 808 q 318 781 354 808 q 317 744 317 761 q 558 522 317 522 l 551 463 l 535 463 q 356 424 426 463 q 286 299 286 386 q 333 164 286 213 q 465 115 381 115 q 554 131 521 115 q 565 199 565 161 q 550 251 565 238 l 551 261 q 674 331 625 288 q 710 290 710 328 q 627 101 710 192 q 442 -21 544 11 q 164 36 279 -21 q 71 120 106 67 q 36 246 36 174 m 226 1240 q 258 1244 238 1244 q 293 1240 278 1244 q 569 1029 371 1122 l 556 996 l 192 1088 q 203 1171 193 1124 q 226 1240 214 1218 z "},"É":{"ha":739,"x_min":36,"x_max":733,"o":"m 36 246 q 116 413 36 347 q 304 478 196 478 l 304 490 q 145 548 206 500 q 83 683 85 596 q 449 925 211 843 q 644 897 561 925 q 701 947 653 903 l 733 926 q 660 790 685 857 q 622 629 635 722 l 583 629 q 575 750 583 703 q 415 808 513 808 q 318 781 354 808 q 317 744 317 761 q 558 522 317 522 l 551 463 l 535 463 q 356 424 426 463 q 286 299 286 386 q 333 164 286 213 q 465 115 381 115 q 554 131 521 115 q 565 199 565 161 q 550 251 565 238 l 551 261 q 674 331 625 288 q 710 290 710 328 q 627 101 710 192 q 442 -21 544 11 q 164 36 279 -21 q 71 120 106 67 q 36 246 36 174 m 603 1226 q 637 1231 615 1231 q 669 1226 658 1231 q 692 1157 682 1204 q 704 1074 703 1110 l 340 982 l 326 1015 q 603 1226 525 1108 z "},"Ê":{"ha":739,"x_min":36,"x_max":746,"o":"m 36 246 q 116 413 36 347 q 304 478 196 478 l 304 490 q 145 548 206 500 q 83 683 85 596 q 449 925 211 843 q 644 897 561 925 q 701 947 653 903 l 733 926 q 660 790 685 857 q 622 629 635 722 l 583 629 q 575 750 583 703 q 415 808 513 808 q 318 781 354 808 q 317 744 317 761 q 558 522 317 522 l 551 463 l 535 463 q 356 424 426 463 q 286 299 286 386 q 333 164 286 213 q 465 115 381 115 q 554 131 521 115 q 565 199 565 161 q 550 251 565 238 l 551 261 q 674 331 625 288 q 710 290 710 328 q 627 101 710 192 q 442 -21 544 11 q 164 36 279 -21 q 71 120 106 67 q 36 246 36 174 m 406 1226 q 449 1231 421 1231 q 492 1226 478 1231 q 746 1015 571 1108 l 732 982 l 449 1068 l 165 982 l 151 1015 q 406 1226 326 1108 z "},"Ë":{"ha":739,"x_min":36,"x_max":733,"o":"m 36 246 q 116 413 36 347 q 304 478 196 478 l 304 490 q 145 548 206 500 q 83 683 85 596 q 449 925 211 843 q 644 897 561 925 q 701 947 653 903 l 733 926 q 660 790 685 857 q 622 629 635 722 l 583 629 q 575 750 583 703 q 415 808 513 808 q 318 781 354 808 q 317 744 317 761 q 558 522 317 522 l 551 463 l 535 463 q 356 424 426 463 q 286 299 286 386 q 333 164 286 213 q 465 115 381 115 q 554 131 521 115 q 565 199 565 161 q 550 251 565 238 l 551 261 q 674 331 625 288 q 710 290 710 328 q 627 101 710 192 q 442 -21 544 11 q 164 36 279 -21 q 71 120 106 67 q 36 246 36 174 m 399 1124 q 345 1053 385 1094 q 275 992 306 1013 q 205 1053 244 1013 q 150 1124 165 1094 q 203 1183 167 1151 q 275 1229 240 1214 q 344 1181 307 1213 q 399 1124 381 1150 m 707 1124 q 653 1053 693 1094 q 583 992 614 1013 q 513 1053 553 1013 q 458 1124 474 1094 q 512 1183 475 1151 q 583 1229 549 1214 q 652 1181 615 1213 q 707 1124 689 1150 z "},"Ì":{"ha":535,"x_min":54,"x_max":485,"o":"m 399 857 q 382 465 382 750 q 401 47 382 179 q 485 24 456 38 l 481 -12 q 263 0 381 0 q 63 -12 146 0 l 57 25 q 135 51 88 42 q 153 443 153 188 q 132 853 153 699 q 54 879 85 863 l 60 917 q 260 904 143 904 q 478 917 378 904 l 482 881 q 399 857 453 867 m 93 1240 q 124 1244 103 1244 q 160 1240 144 1244 q 436 1029 238 1122 l 422 996 l 58 1088 q 70 1171 60 1124 q 93 1240 81 1218 z "},"Í":{"ha":535,"x_min":54,"x_max":485,"o":"m 399 857 q 382 465 382 750 q 401 47 382 179 q 485 24 456 38 l 481 -12 q 263 0 381 0 q 63 -12 146 0 l 57 25 q 135 51 88 42 q 153 443 153 188 q 132 853 153 699 q 54 879 85 863 l 60 917 q 260 904 143 904 q 478 917 378 904 l 482 881 q 399 857 453 867 m 363 1226 q 397 1231 375 1231 q 429 1226 419 1231 q 452 1157 442 1204 q 464 1074 463 1110 l 100 982 l 86 1015 q 363 1226 285 1108 z "},"Î":{"ha":535,"x_min":-3,"x_max":536,"o":"m 224 1226 q 267 1231 239 1231 q 310 1226 294 1231 q 536 1015 404 1085 l 522 982 l 267 1068 l 11 982 l -3 1015 q 224 1226 129 1085 m 399 857 q 382 465 382 750 q 401 47 382 179 q 485 24 456 38 l 481 -12 q 263 0 381 0 q 63 -12 146 0 l 57 25 q 135 51 88 42 q 153 443 153 188 q 132 853 153 699 q 54 879 85 863 l 60 917 q 260 904 143 904 q 478 917 378 904 l 482 881 q 399 857 453 867 m 399 857 q 482 881 453 867 l 478 917 q 260 904 378 904 q 60 917 143 904 l 54 879 q 132 853 85 863 q 153 443 153 699 q 135 51 153 188 q 57 25 88 42 q 63 -12 57 25 q 263 0 146 0 q 481 -12 381 0 l 485 24 q 401 47 456 38 q 382 465 382 179 q 399 857 382 750 z "},"Ï":{"ha":535,"x_min":-12,"x_max":544,"o":"m 399 857 q 382 465 382 750 q 401 47 382 179 q 485 24 456 38 l 481 -12 q 263 0 381 0 q 63 -12 146 0 l 57 25 q 135 51 88 42 q 153 443 153 188 q 132 853 153 699 q 54 879 85 863 l 60 917 q 260 904 143 904 q 478 917 378 904 l 482 881 q 399 857 453 867 m 236 1124 q 183 1053 222 1094 q 113 992 143 1013 q 42 1053 82 1013 q -12 1124 3 1094 q 41 1183 4 1151 q 113 1229 78 1214 q 181 1181 144 1213 q 236 1124 218 1150 m 544 1124 q 491 1053 531 1094 q 421 992 451 1013 q 351 1053 390 1013 q 296 1124 311 1094 q 349 1183 313 1151 q 421 1229 386 1214 q 490 1181 453 1213 q 544 1124 526 1150 z "},"Ð":{"ha":946,"x_min":-139,"x_max":904,"o":"m 356 438 l 218 431 q 54 418 118 428 l 50 424 q 60 476 57 449 l 390 492 q 513 499 486 496 q 525 447 518 463 l 525 440 l 356 438 m 519 904 q 809 815 714 904 q 904 528 904 726 q 779 173 904 329 q 454 -21 654 17 q 186 35 344 -21 q 151 -32 167 11 l 117 -24 q 156 417 156 161 q 142 810 156 674 q 3 779 29 806 q -10 708 -10 744 q 11 658 -10 671 l 10 649 q -103 579 -56 622 q -139 619 -139 582 q -65 789 -139 703 q 99 914 10 875 q 519 904 243 904 m 447 814 q 396 810 421 814 q 385 491 385 686 q 394 133 385 296 q 507 96 447 96 q 604 119 567 96 q 656 444 656 244 q 447 814 656 814 z "},"Ñ":{"ha":981,"x_min":-139,"x_max":946,"o":"m 136 51 q 154 397 154 188 q 138 808 154 606 q 3 778 25 800 q -10 706 -10 743 q 11 657 -10 669 l 10 647 q -103 578 -56 621 q -139 618 -139 581 q -51 799 -139 708 q 133 922 36 890 q 231 913 151 922 q 366 904 311 904 q 467 915 421 904 l 471 890 q 438 849 438 881 q 446 789 438 817 q 518 643 454 761 q 710 315 582 525 l 715 318 l 715 449 q 692 777 715 688 q 586 888 669 867 l 590 917 q 765 904 671 904 q 942 917 858 904 l 946 881 q 849 857 910 867 q 835 698 842 822 q 828 369 828 574 q 849 47 828 165 q 946 24 901 39 l 942 -12 q 765 0 856 0 q 603 -8 675 0 q 544 168 603 51 q 272 640 486 285 l 267 638 l 267 531 q 282 203 267 315 q 349 47 297 92 q 432 24 403 38 l 428 -12 q 230 0 313 0 q 64 -12 147 0 l 58 25 q 136 51 89 42 m 692 1160 q 811 1214 774 1160 l 844 1190 q 653 1001 740 1049 q 521 1038 615 1001 q 386 1074 426 1074 q 272 1019 307 1074 l 239 1043 q 474 1231 339 1182 q 692 1160 583 1160 z "},"Ò":{"ha":914,"x_min":42,"x_max":872,"o":"m 483 925 q 774 827 675 925 q 872 534 872 729 q 764 192 872 339 q 464 -21 656 46 q 158 88 274 -21 q 42 382 42 196 q 109 641 42 525 q 301 831 176 757 l 328 815 q 290 485 290 676 q 329 229 290 343 q 392 132 350 168 q 486 96 435 96 q 572 119 538 96 q 624 431 624 238 q 478 808 624 808 q 431 779 439 808 q 503 682 457 682 l 506 674 q 447 554 465 619 q 428 549 438 549 q 381 595 399 549 q 364 685 364 642 q 483 925 364 854 m 235 1240 q 266 1244 246 1244 q 301 1240 286 1244 q 578 1029 379 1122 l 564 996 l 200 1088 q 212 1171 201 1124 q 235 1240 222 1218 z "},"Ó":{"ha":914,"x_min":42,"x_max":872,"o":"m 483 925 q 774 827 675 925 q 872 534 872 729 q 764 192 872 339 q 464 -21 656 46 q 158 88 274 -21 q 42 382 42 196 q 109 641 42 525 q 301 831 176 757 l 328 815 q 290 485 290 676 q 329 229 290 343 q 392 132 350 168 q 486 96 435 96 q 572 119 538 96 q 624 431 624 238 q 478 808 624 808 q 431 779 439 808 q 503 682 457 682 l 506 674 q 447 554 465 619 q 428 549 438 549 q 381 595 399 549 q 364 685 364 642 q 483 925 364 854 m 649 1226 q 683 1231 661 1231 q 715 1226 706 1231 q 738 1157 728 1204 q 750 1074 749 1110 l 386 982 l 372 1015 q 649 1226 571 1108 z "},"Ô":{"ha":914,"x_min":42,"x_max":872,"o":"m 483 925 q 774 827 675 925 q 872 534 872 729 q 764 192 872 339 q 464 -21 656 46 q 158 88 274 -21 q 42 382 42 196 q 109 641 42 525 q 301 831 176 757 l 328 815 q 290 485 290 676 q 329 229 290 343 q 392 132 350 168 q 486 96 435 96 q 572 119 538 96 q 624 431 624 238 q 478 808 624 808 q 431 779 439 808 q 503 682 457 682 l 506 674 q 447 554 465 619 q 428 549 438 549 q 381 595 399 549 q 364 685 364 642 q 483 925 364 854 m 438 1226 q 481 1231 453 1231 q 524 1226 508 1231 q 778 1015 603 1108 l 764 982 l 481 1068 l 197 982 l 183 1015 q 438 1226 358 1108 z "},"Õ":{"ha":914,"x_min":42,"x_max":872,"o":"m 483 925 q 774 827 675 925 q 872 534 872 729 q 764 192 872 339 q 464 -21 656 46 q 158 88 274 -21 q 42 382 42 196 q 109 641 42 525 q 301 831 176 757 l 328 815 q 290 485 290 676 q 329 229 290 343 q 392 132 350 168 q 486 96 435 96 q 572 119 538 96 q 624 431 624 238 q 478 808 624 808 q 431 779 439 808 q 503 682 457 682 l 506 674 q 447 554 465 619 q 428 549 438 549 q 381 595 399 549 q 364 685 364 642 q 483 925 364 854 m 674 1160 q 793 1214 756 1160 l 826 1190 q 635 1001 722 1049 q 503 1038 597 1001 q 368 1074 408 1074 q 254 1019 289 1074 l 221 1043 q 456 1231 321 1182 q 674 1160 565 1160 z "},"Ö":{"ha":914,"x_min":42,"x_max":872,"o":"m 483 925 q 774 827 675 925 q 872 534 872 729 q 764 192 872 339 q 464 -21 656 46 q 158 88 274 -21 q 42 382 42 196 q 109 641 42 525 q 301 831 176 757 l 328 815 q 290 485 290 676 q 329 229 290 343 q 392 132 350 168 q 486 96 435 96 q 572 119 538 96 q 624 431 624 238 q 478 808 624 808 q 431 779 439 808 q 503 682 457 682 l 506 674 q 447 554 465 619 q 428 549 438 549 q 381 595 399 549 q 364 685 364 642 q 483 925 364 854 m 439 1124 q 385 1053 425 1094 q 315 992 346 1013 q 245 1053 285 1013 q 190 1124 206 1094 q 244 1183 207 1151 q 315 1229 281 1214 q 384 1181 347 1213 q 439 1124 421 1150 m 747 1124 q 694 1053 733 1094 q 624 992 654 1013 q 553 1053 593 1013 q 499 1124 514 1094 q 552 1183 515 1151 q 624 1229 589 1214 q 692 1181 656 1213 q 747 1124 729 1150 z "},"×":{"ha":800,"x_min":107,"x_max":693,"o":"m 107 126 q 335 332 253 249 l 121 544 l 193 614 l 204 613 q 404 400 239 574 l 596 611 l 607 613 l 679 546 l 463 335 q 693 128 536 258 l 635 53 l 619 54 l 397 271 l 181 53 l 165 53 l 107 126 z "},"Ø":{"ha":914,"x_min":42,"x_max":872,"o":"m 289 -121 l 282 -121 q 236 -87 251 -107 q 356 199 303 61 l 550 710 q 658 1015 608 861 q 721 1026 700 1018 l 726 1022 q 611 728 708 981 l 289 -121 m 483 925 q 774 827 675 925 q 872 534 872 729 q 764 192 872 339 q 464 -21 656 46 q 158 88 274 -21 q 42 382 42 196 q 109 641 42 525 q 301 831 176 757 l 328 815 q 290 485 290 676 q 329 229 290 343 q 392 132 350 168 q 486 96 435 96 q 572 119 538 96 q 624 431 624 238 q 478 808 624 808 q 431 779 439 808 q 503 682 457 682 l 506 674 q 447 554 465 619 q 428 549 438 549 q 381 595 399 549 q 364 685 364 642 q 483 925 364 854 z "},"Ù":{"ha":993,"x_min":-139,"x_max":943,"o":"m 3 778 q -10 706 -10 743 q 11 657 -10 669 l 10 647 q -103 578 -56 621 q -139 618 -139 581 q -51 799 -139 708 q 133 922 36 890 q 222 913 153 922 q 342 904 290 904 q 429 915 394 904 l 433 890 q 388 844 400 872 q 365 698 375 817 q 356 458 356 579 q 356 313 356 336 q 360 251 357 289 q 372 194 364 214 q 393 154 379 175 q 483 115 419 115 q 607 163 546 115 q 611 461 611 224 q 590 853 611 699 q 513 879 543 863 l 518 917 q 719 904 601 904 q 936 917 836 904 l 940 881 q 857 857 911 867 q 840 465 840 750 q 860 47 840 179 q 943 24 914 38 l 939 -12 q 756 0 839 0 q 590 -12 674 0 l 585 13 q 603 92 597 32 q 421 -21 532 24 q 185 64 250 -21 q 119 335 119 149 q 129 586 119 414 q 139 778 139 758 q 138 808 139 797 q 3 778 25 800 m 253 1240 q 284 1244 263 1244 q 319 1240 306 1244 q 596 1029 397 1122 l 582 996 l 218 1088 q 230 1171 219 1124 q 253 1240 240 1218 z "},"Ú":{"ha":993,"x_min":-139,"x_max":943,"o":"m 3 778 q -10 706 -10 743 q 11 657 -10 669 l 10 647 q -103 578 -56 621 q -139 618 -139 581 q -51 799 -139 708 q 133 922 36 890 q 222 913 153 922 q 342 904 290 904 q 429 915 394 904 l 433 890 q 388 844 400 872 q 365 698 375 817 q 356 458 356 579 q 356 313 356 336 q 360 251 357 289 q 372 194 364 214 q 393 154 379 175 q 483 115 419 115 q 607 163 546 115 q 611 461 611 224 q 590 853 611 699 q 513 879 543 863 l 518 917 q 719 904 601 904 q 936 917 836 904 l 940 881 q 857 857 911 867 q 840 465 840 750 q 860 47 840 179 q 943 24 914 38 l 939 -12 q 756 0 839 0 q 590 -12 674 0 l 585 13 q 603 92 597 32 q 421 -21 532 24 q 185 64 250 -21 q 119 335 119 149 q 129 586 119 414 q 139 778 139 758 q 138 808 139 797 q 3 778 25 800 m 708 1226 q 742 1231 721 1231 q 775 1226 764 1231 q 798 1157 788 1204 q 810 1074 808 1110 l 446 982 l 432 1015 q 708 1226 631 1108 z "},"Û":{"ha":993,"x_min":-139,"x_max":943,"o":"m 3 778 q -10 706 -10 743 q 11 657 -10 669 l 10 647 q -103 578 -56 621 q -139 618 -139 581 q -51 799 -139 708 q 133 922 36 890 q 222 913 153 922 q 342 904 290 904 q 429 915 394 904 l 433 890 q 388 844 400 872 q 365 698 375 817 q 356 458 356 579 q 356 313 356 336 q 360 251 357 289 q 372 194 364 214 q 393 154 379 175 q 483 115 419 115 q 607 163 546 115 q 611 461 611 224 q 590 853 611 699 q 513 879 543 863 l 518 917 q 719 904 601 904 q 936 917 836 904 l 940 881 q 857 857 911 867 q 840 465 840 750 q 860 47 840 179 q 943 24 914 38 l 939 -12 q 756 0 839 0 q 590 -12 674 0 l 585 13 q 603 92 597 32 q 421 -21 532 24 q 185 64 250 -21 q 119 335 119 149 q 129 586 119 414 q 139 778 139 758 q 138 808 139 797 q 3 778 25 800 m 467 1226 q 510 1231 481 1231 q 553 1226 539 1231 q 807 1015 632 1108 l 793 982 l 510 1068 l 226 982 l 213 1015 q 467 1226 388 1108 z "},"Ü":{"ha":993,"x_min":-139,"x_max":943,"o":"m 3 778 q -10 706 -10 743 q 11 657 -10 669 l 10 647 q -103 578 -56 621 q -139 618 -139 581 q -51 799 -139 708 q 133 922 36 890 q 222 913 153 922 q 342 904 290 904 q 429 915 394 904 l 433 890 q 388 844 400 872 q 365 698 375 817 q 356 458 356 579 q 356 313 356 336 q 360 251 357 289 q 372 194 364 214 q 393 154 379 175 q 483 115 419 115 q 607 163 546 115 q 611 461 611 224 q 590 853 611 699 q 513 879 543 863 l 518 917 q 719 904 601 904 q 936 917 836 904 l 940 881 q 857 857 911 867 q 840 465 840 750 q 860 47 840 179 q 943 24 914 38 l 939 -12 q 756 0 839 0 q 590 -12 674 0 l 585 13 q 603 92 597 32 q 421 -21 532 24 q 185 64 250 -21 q 119 335 119 149 q 129 586 119 414 q 139 778 139 758 q 138 808 139 797 q 3 778 25 800 m 467 1124 q 413 1053 453 1094 q 343 992 374 1013 q 273 1053 313 1013 q 218 1124 233 1094 q 272 1183 235 1151 q 343 1229 308 1214 q 412 1181 375 1213 q 467 1124 449 1150 m 775 1124 q 722 1053 761 1094 q 651 992 682 1013 q 581 1053 621 1013 q 526 1124 542 1094 q 580 1183 543 1151 q 651 1229 617 1214 q 720 1181 683 1213 q 775 1124 757 1150 z "},"Ý":{"ha":764,"x_min":-278,"x_max":831,"o":"m 275 382 l 275 417 l 50 864 q -47 992 1 957 q -154 936 -147 981 l -165 932 q -274 1008 -214 981 q -278 1025 -278 1017 q -238 1063 -278 1051 q -157 1074 -199 1074 q 108 1017 -36 1074 q 354 881 251 961 q 346 813 346 850 q 390 629 346 725 l 447 504 q 522 738 506 678 q 538 838 538 799 q 507 892 538 876 l 511 914 q 678 904 601 904 q 825 917 756 904 l 831 881 q 750 853 797 863 l 506 456 q 524 47 506 181 q 607 24 583 35 l 603 -12 q 391 0 514 0 q 185 -12 268 0 l 179 25 q 258 51 208 40 q 275 382 275 176 m 672 1226 q 706 1231 685 1231 q 739 1226 728 1231 q 762 1157 751 1204 q 774 1074 772 1110 l 410 982 l 396 1015 q 672 1226 594 1108 z "},"Þ":{"ha":853,"x_min":54,"x_max":811,"o":"m 386 669 q 382 412 382 644 q 401 47 382 179 q 485 24 456 38 l 481 -12 q 263 0 381 0 q 63 -12 146 0 l 57 25 q 135 51 88 42 q 153 443 153 188 q 132 853 153 699 q 54 879 85 863 l 60 917 q 260 904 143 904 q 478 917 378 904 l 482 881 q 399 857 453 867 q 389 743 393 814 l 475 744 q 483 744 479 744 q 725 697 639 744 q 811 518 811 649 q 707 304 811 388 q 467 221 603 221 q 431 222 442 221 l 436 286 l 453 286 q 561 496 561 286 q 534 628 561 581 q 438 676 507 676 q 386 669 411 676 z "},"ß":{"ha":1142,"x_min":-14,"x_max":1119,"o":"m 269 96 q 342 113 313 96 q 372 163 372 131 q 322 233 372 194 q 212 304 272 271 q 101 381 151 338 q 51 464 51 425 q 145 649 51 553 q 335 771 239 744 q 549 744 451 771 l 549 722 q 478 522 488 667 l 442 522 q 435 617 442 588 q 304 661 379 661 q 234 646 265 661 q 203 602 203 631 q 255 536 203 574 q 370 466 307 499 q 485 390 433 433 q 538 308 538 346 q 438 122 538 231 q 254 -21 339 14 q 60 6 156 -21 q 11 -37 38 -7 l -14 -14 q 69 238 69 79 l 104 238 l 110 158 q 269 96 175 96 m 840 96 q 913 113 883 96 q 943 163 943 131 q 893 233 943 194 q 783 304 843 271 q 672 381 722 338 q 622 464 622 425 q 716 649 622 553 q 906 771 810 744 q 1119 744 1022 771 l 1119 722 q 1049 522 1058 667 l 1013 522 q 1006 617 1013 588 q 875 661 950 661 q 805 646 836 661 q 774 602 774 631 q 826 536 774 574 q 941 466 878 499 q 1056 390 1004 433 q 1108 308 1108 346 q 1009 122 1108 231 q 825 -21 910 14 q 631 6 726 -21 q 582 -37 608 -7 l 557 -14 q 640 238 640 79 l 675 238 l 681 158 q 840 96 746 96 z "},"à":{"ha":789,"x_min":-19,"x_max":738,"o":"m 443 256 q 356 264 417 264 q 264 257 294 264 q 247 108 247 147 q 296 13 247 35 l 292 -10 q 153 0 247 0 q -14 -12 60 0 l -19 21 q 46 44 6 33 l 229 700 q 160 731 185 715 l 168 763 q 447 750 263 750 q 732 764 632 750 l 735 733 q 668 713 707 721 q 654 384 654 611 q 671 40 654 157 q 738 22 703 33 l 735 -10 q 562 0 665 0 q 385 -11 458 0 l 379 22 q 431 43 397 32 q 443 256 440 136 m 444 381 q 432 671 444 564 q 386 679 415 679 q 336 672 357 679 l 276 350 q 358 344 315 344 q 444 350 400 344 l 444 381 m 201 1090 q 233 1093 210 1093 q 268 1089 256 1093 q 544 821 371 915 l 531 788 l 167 922 q 178 1015 168 960 q 201 1090 189 1069 z "},"á":{"ha":799,"x_min":-10,"x_max":747,"o":"m 453 256 q 365 264 426 264 q 274 257 304 264 q 257 108 257 147 q 306 13 257 35 l 301 -10 q 163 0 257 0 q -4 -12 69 0 l -10 21 q 56 44 15 33 l 239 700 q 169 731 194 715 l 178 763 q 457 750 272 750 q 742 764 642 750 l 744 733 q 678 713 717 721 q 664 384 664 611 q 681 40 664 157 q 747 22 711 33 l 744 -10 q 572 0 675 0 q 394 -11 468 0 l 389 22 q 440 43 407 32 q 453 256 450 136 m 454 381 q 442 671 454 564 q 396 679 425 679 q 346 672 367 679 l 286 350 q 367 344 325 344 q 454 350 410 344 l 454 381 m 633 1089 q 669 1093 646 1093 q 700 1090 692 1093 q 723 1015 713 1069 q 735 922 733 960 l 371 788 l 357 821 q 633 1089 531 915 z "},"â":{"ha":789,"x_min":-19,"x_max":749,"o":"m 443 256 q 356 264 417 264 q 264 257 294 264 q 247 108 247 147 q 296 13 247 35 l 292 -10 q 153 0 247 0 q -14 -12 60 0 l -19 21 q 46 44 6 33 l 229 700 q 160 731 185 715 l 168 763 q 447 750 263 750 q 732 764 632 750 l 735 733 q 668 713 707 721 q 654 384 654 611 q 671 40 654 157 q 738 22 703 33 l 735 -10 q 562 0 665 0 q 385 -11 458 0 l 379 22 q 431 43 397 32 q 443 256 440 136 m 444 381 q 432 671 444 564 q 386 679 415 679 q 336 672 357 679 l 276 350 q 358 344 315 344 q 444 350 400 344 l 444 381 m 419 1100 q 449 1103 428 1103 q 478 1100 469 1103 q 749 831 574 936 l 735 797 l 449 907 l 163 797 l 149 831 q 419 1100 324 936 z "},"ã":{"ha":789,"x_min":-19,"x_max":772,"o":"m 443 256 q 356 264 417 264 q 264 257 294 264 q 247 108 247 147 q 296 13 247 35 l 292 -10 q 153 0 247 0 q -14 -12 60 0 l -19 21 q 46 44 6 33 l 229 700 q 160 731 185 715 l 168 763 q 447 750 263 750 q 732 764 632 750 l 735 733 q 668 713 707 721 q 654 384 654 611 q 671 40 654 157 q 738 22 703 33 l 735 -10 q 562 0 665 0 q 385 -11 458 0 l 379 22 q 431 43 397 32 q 443 256 440 136 m 444 381 q 432 671 444 564 q 386 679 415 679 q 336 672 357 679 l 276 350 q 358 344 315 344 q 444 350 400 344 l 444 381 m 619 999 q 739 1053 701 999 l 772 1029 q 581 840 668 888 q 449 876 543 840 q 314 913 354 913 q 200 858 235 913 l 167 882 q 401 1069 267 1021 q 619 999 511 999 z "},"ä":{"ha":789,"x_min":-19,"x_max":738,"o":"m 443 256 q 356 264 417 264 q 264 257 294 264 q 247 108 247 147 q 296 13 247 35 l 292 -10 q 153 0 247 0 q -14 -12 60 0 l -19 21 q 46 44 6 33 l 229 700 q 160 731 185 715 l 168 763 q 447 750 263 750 q 732 764 632 750 l 735 733 q 668 713 707 721 q 654 384 654 611 q 671 40 654 157 q 738 22 703 33 l 735 -10 q 562 0 665 0 q 385 -11 458 0 l 379 22 q 431 43 397 32 q 443 256 440 136 m 444 381 q 432 671 444 564 q 386 679 415 679 q 336 672 357 679 l 276 350 q 358 344 315 344 q 444 350 400 344 l 444 381 m 424 956 q 370 885 410 926 q 300 824 331 844 q 230 885 269 844 q 175 956 190 926 q 228 1015 192 983 q 300 1061 265 1046 q 369 1013 332 1044 q 424 956 406 982 m 732 956 q 678 885 718 926 q 608 824 639 844 q 538 885 578 844 q 483 956 499 926 q 537 1015 500 983 q 608 1061 574 1046 q 677 1013 640 1044 q 732 956 714 982 z "},"å":{"ha":789,"x_min":-19,"x_max":738,"o":"m 443 256 q 356 264 417 264 q 264 257 294 264 q 247 108 247 147 q 296 13 247 35 l 292 -10 q 153 0 247 0 q -14 -12 60 0 l -19 21 q 46 44 6 33 l 229 700 q 160 731 185 715 l 168 763 q 447 750 263 750 q 732 764 632 750 l 735 733 q 668 713 707 721 q 654 384 654 611 q 671 40 654 157 q 738 22 703 33 l 735 -10 q 562 0 665 0 q 385 -11 458 0 l 379 22 q 431 43 397 32 q 443 256 440 136 m 444 381 q 432 671 444 564 q 386 679 415 679 q 336 672 357 679 l 276 350 q 358 344 315 344 q 444 350 400 344 l 444 381 m 460 800 q 350 830 394 800 q 306 919 306 860 q 352 1026 306 979 q 469 1088 399 1072 q 613 971 613 1088 q 569 864 613 908 q 460 800 526 819 m 528 940 q 528 958 528 940 q 506 999 528 976 q 450 1021 485 1021 q 400 1010 415 1021 q 390 948 390 985 q 413 888 390 911 q 467 865 435 865 q 518 878 500 865 q 528 940 528 903 z "},"æ":{"ha":939,"x_min":-29,"x_max":910,"o":"m 182 763 q 528 750 276 750 q 893 767 779 750 l 901 738 q 851 553 857 667 l 815 553 q 804 649 804 604 q 721 668 767 668 q 647 664 675 668 q 615 444 619 592 l 615 443 q 668 438 638 438 q 796 481 756 438 l 825 472 q 810 377 810 424 q 822 271 810 331 l 789 265 q 764 350 774 301 q 682 357 729 357 q 613 351 635 357 q 640 149 613 192 q 733 101 671 101 q 808 119 775 101 q 888 175 840 138 l 910 149 q 660 -21 815 19 q 468 39 529 -21 q 406 217 415 89 q 401 353 401 269 q 342 357 381 357 q 276 351 303 357 q 238 110 238 185 q 286 13 238 35 l 282 -10 q 144 0 238 0 q -24 -12 50 0 l -29 21 q 36 44 -4 33 l 243 700 q 174 731 199 715 l 182 763 m 428 671 q 388 676 411 676 q 350 672 364 676 l 296 438 q 348 433 311 433 q 407 439 385 433 l 428 590 q 432 644 432 628 q 428 671 432 661 z "},"ç":{"ha":631,"x_min":39,"x_max":660,"o":"m 593 175 q 424 103 507 103 q 303 161 340 103 q 265 390 265 217 q 308 654 265 554 q 388 674 333 674 q 521 625 469 674 q 536 526 524 575 l 571 526 q 606 706 574 621 q 658 717 635 717 l 660 749 q 417 771 536 771 q 144 601 250 731 q 39 310 39 472 q 131 64 39 149 q 386 -21 224 -21 q 617 151 517 24 l 593 175 m 342 -243 q 382 -236 365 -243 q 390 -204 390 -221 q 267 -149 390 -149 l 258 -143 l 311 19 l 365 22 l 333 -50 l 339 -54 q 497 -161 497 -54 q 328 -326 443 -265 q 192 -297 253 -326 q 242 -192 229 -240 l 247 -189 q 342 -243 281 -243 z "},"è":{"ha":635,"x_min":39,"x_max":660,"o":"m 419 103 q 593 175 506 103 l 617 151 q 383 -21 511 22 q 131 63 222 -21 q 39 310 39 147 q 144 601 39 472 q 415 771 249 731 q 660 749 533 771 l 658 717 q 606 706 635 717 q 571 526 572 618 l 536 526 q 521 625 524 575 q 386 674 468 674 q 307 654 336 674 q 268 451 274 574 q 384 436 314 436 q 497 479 454 436 l 526 471 q 511 374 511 421 q 524 269 511 326 l 490 264 q 465 349 476 296 q 372 356 429 356 q 265 344 314 356 q 276 222 265 271 q 322 138 286 174 q 419 103 357 103 m 161 1090 q 192 1093 169 1093 q 228 1089 215 1093 q 504 821 331 915 l 490 788 l 126 922 q 138 1015 128 960 q 161 1090 149 1069 z "},"é":{"ha":635,"x_min":39,"x_max":665,"o":"m 419 103 q 593 175 506 103 l 617 151 q 383 -21 511 22 q 131 63 222 -21 q 39 310 39 147 q 144 601 39 472 q 415 771 249 731 q 660 749 533 771 l 658 717 q 606 706 635 717 q 571 526 572 618 l 536 526 q 521 625 524 575 q 386 674 468 674 q 307 654 336 674 q 268 451 274 574 q 384 436 314 436 q 497 479 454 436 l 526 471 q 511 374 511 421 q 524 269 511 326 l 490 264 q 465 349 476 296 q 372 356 429 356 q 265 344 314 356 q 276 222 265 271 q 322 138 286 174 q 419 103 357 103 m 564 1089 q 599 1093 576 1093 q 631 1090 622 1093 q 653 1015 643 1069 q 665 922 664 960 l 301 788 l 288 821 q 564 1089 461 915 z "},"ê":{"ha":635,"x_min":39,"x_max":699,"o":"m 419 103 q 593 175 506 103 l 617 151 q 383 -21 511 22 q 131 63 222 -21 q 39 310 39 147 q 144 601 39 472 q 415 771 249 731 q 660 749 533 771 l 658 717 q 606 706 635 717 q 571 526 572 618 l 536 526 q 521 625 524 575 q 386 674 468 674 q 307 654 336 674 q 268 451 274 574 q 384 436 314 436 q 497 479 454 436 l 526 471 q 511 374 511 421 q 524 269 511 326 l 490 264 q 465 349 476 296 q 372 356 429 356 q 265 344 314 356 q 276 222 265 271 q 322 138 286 174 q 419 103 357 103 m 369 1100 q 399 1103 378 1103 q 428 1100 419 1103 q 699 831 524 936 l 685 797 l 399 907 l 113 797 l 99 831 q 369 1100 274 936 z "},"ë":{"ha":635,"x_min":39,"x_max":676,"o":"m 368 956 q 315 885 354 926 q 244 824 275 844 q 174 885 214 844 q 119 956 135 926 q 173 1015 136 983 q 244 1061 210 1046 q 313 1013 276 1044 q 368 956 350 982 m 676 956 q 623 885 663 926 q 553 824 583 844 q 483 885 522 844 q 428 956 443 926 q 481 1015 444 983 q 553 1061 518 1046 q 622 1013 585 1044 q 676 956 658 982 m 419 103 q 593 175 506 103 l 617 151 q 383 -21 511 22 q 131 63 222 -21 q 39 310 39 147 q 144 601 39 472 q 415 771 249 731 q 660 749 533 771 l 658 717 q 606 706 635 717 q 571 526 572 618 l 536 526 q 521 625 524 575 q 386 674 468 674 q 307 654 336 674 q 268 451 274 574 q 384 436 314 436 q 497 479 454 436 l 526 471 q 511 374 511 421 q 524 269 511 326 l 490 264 q 465 349 476 296 q 372 356 429 356 q 265 344 314 356 q 276 222 265 271 q 322 138 286 174 q 419 103 357 103 z "},"ì":{"ha":479,"x_min":0,"x_max":428,"o":"m 119 43 q 135 358 135 139 q 118 707 135 578 q 65 729 88 717 l 69 763 q 249 750 153 750 q 424 761 344 750 l 426 731 q 360 710 399 718 q 344 382 344 607 q 361 40 344 157 q 428 22 392 33 l 425 -10 q 251 0 356 0 q 74 -11 147 0 l 68 22 q 119 43 86 32 m 35 1090 q 66 1093 43 1093 q 101 1089 89 1093 q 378 821 204 915 l 364 788 l 0 922 q 12 1015 1 960 q 35 1090 22 1069 z "},"í":{"ha":479,"x_min":65,"x_max":478,"o":"m 119 43 q 135 358 135 139 q 118 707 135 578 q 65 729 88 717 l 69 763 q 249 750 153 750 q 424 761 344 750 l 426 731 q 360 710 399 718 q 344 382 344 607 q 361 40 344 157 q 428 22 392 33 l 425 -10 q 251 0 356 0 q 74 -11 147 0 l 68 22 q 119 43 86 32 m 376 1089 q 412 1093 389 1093 q 443 1090 435 1093 q 466 1015 456 1069 q 478 922 476 960 l 114 788 l 100 821 q 376 1089 274 915 z "},"î":{"ha":479,"x_min":-28,"x_max":517,"o":"m 215 1100 q 244 1103 224 1103 q 274 1100 265 1103 q 517 831 385 910 l 503 797 l 244 907 l -14 797 l -28 831 q 215 1100 104 910 m 119 43 q 135 358 135 139 q 118 707 135 578 q 65 729 88 717 l 69 763 q 249 750 153 750 q 424 761 344 750 l 426 731 q 360 710 399 718 q 344 382 344 607 q 361 40 344 157 q 428 22 392 33 l 425 -10 q 251 0 356 0 q 74 -11 147 0 l 68 22 q 119 43 86 32 z "},"ï":{"ha":479,"x_min":-37,"x_max":519,"o":"m 119 43 q 135 358 135 139 q 118 707 135 578 q 65 729 88 717 l 69 763 q 249 750 153 750 q 424 761 344 750 l 426 731 q 360 710 399 718 q 344 382 344 607 q 361 40 344 157 q 428 22 392 33 l 425 -10 q 251 0 356 0 q 74 -11 147 0 l 68 22 q 119 43 86 32 m 211 956 q 158 885 197 926 q 88 824 118 844 q 17 885 57 844 q -37 956 -22 926 q 16 1015 -21 983 q 88 1061 53 1046 q 156 1013 119 1044 q 211 956 193 982 m 519 956 q 466 885 506 926 q 396 824 426 844 q 326 885 365 844 q 271 956 286 926 q 324 1015 288 983 q 396 1061 361 1046 q 465 1013 428 1044 q 519 956 501 982 z "},"ð":{"ha":833,"x_min":53,"x_max":794,"o":"m 296 367 l 221 364 q 57 351 121 361 l 53 357 q 63 410 60 382 l 331 421 q 453 428 428 425 q 465 376 458 392 l 465 369 l 296 367 m 63 746 l 439 756 q 705 681 615 756 q 794 440 794 607 q 682 142 794 272 q 400 -21 569 11 q 157 25 292 -21 q 128 -31 140 4 l 100 -24 q 132 358 132 132 q 117 692 132 585 q 63 713 96 704 l 63 746 m 394 689 q 351 683 369 689 q 343 401 343 565 q 350 107 343 236 q 443 76 393 76 q 525 96 493 76 q 568 364 568 200 q 394 689 568 689 z "},"ñ":{"ha":899,"x_min":63,"x_max":849,"o":"m 118 43 q 135 369 135 171 q 115 707 135 568 q 63 729 85 717 l 67 763 q 260 750 150 750 q 432 761 369 750 l 436 738 q 410 699 410 726 q 448 601 410 672 q 647 267 486 529 l 651 269 l 651 379 q 632 646 651 575 q 543 733 613 717 l 547 760 q 688 750 608 750 q 846 761 768 750 l 849 731 q 782 710 821 718 q 764 378 764 604 q 782 40 764 151 q 849 22 813 33 l 846 -10 q 682 0 776 0 q 539 -7 588 0 q 504 100 539 33 q 253 524 464 176 l 247 522 l 247 432 q 260 167 247 256 q 315 40 272 78 q 382 22 346 33 l 379 -10 q 228 0 310 0 q 72 -11 146 0 l 67 22 q 118 43 85 32 m 640 999 q 760 1053 722 999 l 793 1029 q 601 840 689 888 q 469 876 564 840 q 335 913 375 913 q 221 858 256 913 l 188 882 q 422 1069 288 1021 q 640 999 532 999 z "},"ò":{"ha":800,"x_min":39,"x_max":761,"o":"m 400 -21 q 138 69 238 -21 q 39 316 39 160 q 144 601 39 472 q 415 771 250 731 q 669 688 578 771 q 761 440 761 604 q 663 148 761 276 q 400 -21 564 19 m 494 606 q 448 653 478 633 q 378 672 418 672 q 310 654 338 672 q 267 389 267 550 q 289 205 267 274 q 344 107 311 136 q 418 78 376 78 q 490 97 460 78 q 533 357 533 194 q 494 606 533 539 m 190 1090 q 222 1093 199 1093 q 257 1089 244 1093 q 533 821 360 915 l 519 788 l 156 922 q 167 1015 157 960 q 190 1090 178 1069 z "},"ó":{"ha":800,"x_min":39,"x_max":761,"o":"m 400 -21 q 138 69 238 -21 q 39 316 39 160 q 144 601 39 472 q 415 771 250 731 q 669 688 578 771 q 761 440 761 604 q 663 148 761 276 q 400 -21 564 19 m 494 606 q 448 653 478 633 q 378 672 418 672 q 310 654 338 672 q 267 389 267 550 q 289 205 267 274 q 344 107 311 136 q 418 78 376 78 q 490 97 460 78 q 533 357 533 194 q 494 606 533 539 m 565 1089 q 601 1093 578 1093 q 632 1090 624 1093 q 655 1015 644 1069 q 667 922 665 960 l 303 788 l 289 821 q 565 1089 463 915 z "},"ô":{"ha":800,"x_min":39,"x_max":761,"o":"m 400 -21 q 138 69 238 -21 q 39 316 39 160 q 144 601 39 472 q 415 771 250 731 q 669 688 578 771 q 761 440 761 604 q 663 148 761 276 q 400 -21 564 19 m 494 606 q 448 653 478 633 q 378 672 418 672 q 310 654 338 672 q 267 389 267 550 q 289 205 267 274 q 344 107 311 136 q 418 78 376 78 q 490 97 460 78 q 533 357 533 194 q 494 606 533 539 m 394 1100 q 424 1103 403 1103 q 453 1100 444 1103 q 724 831 549 936 l 710 797 l 424 907 l 138 797 l 124 831 q 394 1100 299 936 z "},"õ":{"ha":800,"x_min":39,"x_max":761,"o":"m 400 -21 q 138 69 238 -21 q 39 316 39 160 q 144 601 39 472 q 415 771 250 731 q 669 688 578 771 q 761 440 761 604 q 663 148 761 276 q 400 -21 564 19 m 494 606 q 448 653 478 633 q 378 672 418 672 q 310 654 338 672 q 267 389 267 550 q 289 205 267 274 q 344 107 311 136 q 418 78 376 78 q 490 97 460 78 q 533 357 533 194 q 494 606 533 539 m 600 999 q 719 1053 682 999 l 753 1029 q 561 840 649 888 q 429 876 524 840 q 294 913 335 913 q 181 858 215 913 l 147 882 q 382 1069 247 1021 q 600 999 492 999 z "},"ö":{"ha":800,"x_min":39,"x_max":761,"o":"m 400 -21 q 138 69 238 -21 q 39 316 39 160 q 144 601 39 472 q 415 771 250 731 q 669 688 578 771 q 761 440 761 604 q 663 148 761 276 q 400 -21 564 19 m 494 606 q 448 653 478 633 q 378 672 418 672 q 310 654 338 672 q 267 389 267 550 q 289 205 267 274 q 344 107 311 136 q 418 78 376 78 q 490 97 460 78 q 533 357 533 194 q 494 606 533 539 m 394 956 q 341 885 381 926 q 271 824 301 844 q 201 885 240 844 q 146 956 161 926 q 199 1015 163 983 q 271 1061 236 1046 q 340 1013 303 1044 q 394 956 376 982 m 703 956 q 649 885 689 926 q 579 824 610 844 q 509 885 549 844 q 454 956 469 926 q 508 1015 471 983 q 579 1061 544 1046 q 648 1013 611 1044 q 703 956 685 982 z "},"÷":{"ha":800,"x_min":79,"x_max":722,"o":"m 453 595 q 465 583 453 595 q 476 542 476 571 q 453 488 476 513 q 401 463 429 463 q 347 488 372 463 q 322 542 322 514 q 347 595 322 571 q 401 619 372 619 q 453 595 429 619 m 453 202 q 465 190 453 202 q 476 149 476 178 q 453 94 476 119 q 401 69 429 69 q 347 95 372 69 q 322 149 322 121 q 347 202 322 178 q 401 226 372 226 q 453 202 429 226 m 92 403 q 494 390 328 390 q 714 394 660 390 l 722 386 l 710 301 l 90 301 l 79 311 l 92 403 z "},"ø":{"ha":800,"x_min":39,"x_max":761,"o":"m 229 -121 l 222 -121 q 176 -87 194 -108 q 296 199 243 61 l 428 546 q 536 851 486 697 q 599 863 571 854 l 604 858 q 489 564 586 817 l 229 -121 m 400 -21 q 138 69 238 -21 q 39 316 39 160 q 144 601 39 472 q 415 771 250 731 q 669 688 578 771 q 761 440 761 604 q 663 148 761 276 q 400 -21 564 19 m 494 606 q 448 653 478 633 q 378 672 418 672 q 310 654 338 672 q 267 389 267 550 q 289 205 267 274 q 344 107 311 136 q 418 78 376 78 q 490 97 460 78 q 533 357 533 194 q 494 606 533 539 z "},"ù":{"ha":893,"x_min":81,"x_max":840,"o":"m 771 710 q 758 385 758 619 q 774 40 758 151 q 840 22 806 33 l 838 -10 q 692 0 776 0 q 532 -12 607 0 l 526 10 q 542 76 536 26 q 389 -18 482 18 q 183 52 242 -18 q 125 278 125 122 q 134 487 125 344 q 143 657 143 629 q 133 707 143 685 q 81 726 99 717 l 86 760 q 248 750 156 750 q 396 758 340 750 l 400 736 q 361 697 372 721 q 335 319 335 639 q 360 146 335 183 q 439 106 386 106 q 546 144 492 106 q 549 398 549 214 q 532 707 549 582 q 479 729 501 717 l 483 763 q 663 750 567 750 q 838 761 758 750 l 840 731 q 774 710 813 718 l 771 710 m 181 1090 q 212 1093 189 1093 q 247 1089 235 1093 q 524 821 350 915 l 510 788 l 146 922 q 158 1015 147 960 q 181 1090 168 1069 z "},"ú":{"ha":893,"x_min":81,"x_max":840,"o":"m 771 710 q 758 385 758 619 q 774 40 758 151 q 840 22 806 33 l 838 -10 q 692 0 776 0 q 532 -12 607 0 l 526 10 q 542 76 536 26 q 389 -18 482 18 q 183 52 242 -18 q 125 278 125 122 q 134 487 125 344 q 143 657 143 629 q 133 707 143 685 q 81 726 99 717 l 86 760 q 248 750 156 750 q 396 758 340 750 l 400 736 q 361 697 372 721 q 335 319 335 639 q 360 146 335 183 q 439 106 386 106 q 546 144 492 106 q 549 398 549 214 q 532 707 549 582 q 479 729 501 717 l 483 763 q 663 750 567 750 q 838 761 758 750 l 840 731 q 774 710 813 718 l 771 710 m 658 1089 q 694 1093 671 1093 q 725 1090 717 1093 q 748 1015 738 1069 q 760 922 758 960 l 396 788 l 382 821 q 658 1089 556 915 z "},"û":{"ha":893,"x_min":81,"x_max":840,"o":"m 771 710 q 758 385 758 619 q 774 40 758 151 q 840 22 806 33 l 838 -10 q 692 0 776 0 q 532 -12 607 0 l 526 10 q 542 76 536 26 q 389 -18 482 18 q 183 52 242 -18 q 125 278 125 122 q 134 487 125 344 q 143 657 143 629 q 133 707 143 685 q 81 726 99 717 l 86 760 q 248 750 156 750 q 396 758 340 750 l 400 736 q 361 697 372 721 q 335 319 335 639 q 360 146 335 183 q 439 106 386 106 q 546 144 492 106 q 549 398 549 214 q 532 707 549 582 q 479 729 501 717 l 483 763 q 663 750 567 750 q 838 761 758 750 l 840 731 q 774 710 813 718 l 771 710 m 435 1100 q 464 1103 443 1103 q 493 1100 485 1103 q 764 831 589 936 l 750 797 l 464 907 l 178 797 l 164 831 q 435 1100 339 936 z "},"ü":{"ha":893,"x_min":81,"x_max":840,"o":"m 771 710 q 758 385 758 619 q 774 40 758 151 q 840 22 806 33 l 838 -10 q 692 0 776 0 q 532 -12 607 0 l 526 10 q 542 76 536 26 q 389 -18 482 18 q 183 52 242 -18 q 125 278 125 122 q 134 487 125 344 q 143 657 143 629 q 133 707 143 685 q 81 726 99 717 l 86 760 q 248 750 156 750 q 396 758 340 750 l 400 736 q 361 697 372 721 q 335 319 335 639 q 360 146 335 183 q 439 106 386 106 q 546 144 492 106 q 549 398 549 214 q 532 707 549 582 q 479 729 501 717 l 483 763 q 663 750 567 750 q 838 761 758 750 l 840 731 q 774 710 813 718 l 771 710 m 426 956 q 373 885 413 926 q 303 824 333 844 q 233 885 272 844 q 178 956 193 926 q 231 1015 194 983 q 303 1061 268 1046 q 372 1013 335 1044 q 426 956 408 982 m 735 956 q 681 885 721 926 q 611 824 642 844 q 541 885 581 844 q 486 956 501 926 q 540 1015 503 983 q 611 1061 576 1046 q 680 1013 643 1044 q 735 956 717 982 z "},"ý":{"ha":689,"x_min":-29,"x_max":729,"o":"m 392 417 q 465 682 465 638 q 440 738 465 726 l 444 758 q 590 750 507 750 q 725 760 674 750 l 729 726 q 663 704 704 713 l 449 376 q 465 40 449 165 q 532 22 497 33 l 529 -10 q 356 0 460 0 q 178 -11 251 0 l 172 22 q 224 43 190 32 q 239 315 239 171 l 239 346 q 64 672 110 615 q 25 710 49 690 q -29 728 -14 719 l -24 761 q 162 750 49 750 q 343 761 275 750 l 347 731 q 281 710 310 715 q 304 640 285 699 q 332 556 324 581 q 392 417 360 474 m 599 1089 q 634 1093 611 1093 q 665 1090 657 1093 q 688 1015 678 1069 q 700 922 699 960 l 336 788 l 322 821 q 599 1089 496 915 z "},"þ":{"ha":760,"x_min":65,"x_max":721,"o":"m 349 560 q 344 319 344 482 q 361 40 344 157 q 428 22 392 33 l 425 -10 q 251 0 356 0 q 74 -11 147 0 l 68 22 q 119 43 86 32 q 135 358 135 139 q 118 707 135 578 q 65 729 88 717 l 69 763 q 249 750 153 750 q 424 761 344 750 l 426 731 q 360 710 399 718 q 351 621 356 689 l 422 622 q 664 572 599 622 q 721 426 721 526 q 626 256 721 325 q 411 188 532 188 q 379 189 390 188 l 386 246 l 400 246 q 494 417 494 246 q 472 526 494 488 q 392 565 450 565 q 349 560 374 565 z "},"ÿ":{"ha":689,"x_min":-29,"x_max":729,"o":"m 392 417 q 465 682 465 638 q 440 738 465 726 l 444 758 q 590 750 507 750 q 725 760 674 750 l 729 726 q 663 704 704 713 l 449 376 q 465 40 449 165 q 532 22 497 33 l 529 -10 q 356 0 460 0 q 178 -11 251 0 l 172 22 q 224 43 190 32 q 239 315 239 171 l 239 346 q 64 672 110 615 q 25 710 49 690 q -29 728 -14 719 l -24 761 q 162 750 49 750 q 343 761 275 750 l 347 731 q 281 710 310 715 q 304 640 285 699 q 332 556 324 581 q 392 417 360 474 m 344 956 q 291 885 331 926 q 221 824 251 844 q 151 885 190 844 q 96 956 111 926 q 149 1015 113 983 q 221 1061 186 1046 q 290 1013 253 1044 q 344 956 326 982 m 653 956 q 599 885 639 926 q 529 824 560 844 q 459 885 499 844 q 404 956 419 926 q 458 1015 421 983 q 529 1061 494 1046 q 598 1013 561 1044 q 653 956 635 982 z "},"ħ":{"ha":914,"x_min":40,"x_max":881,"o":"m 711 571 l 208 553 q 44 540 108 550 l 40 546 q 50 599 47 571 l 746 625 q 868 632 842 629 q 881 581 874 596 l 881 574 l 711 571 m 568 368 q 456 376 525 376 q 346 368 388 376 q 361 47 346 154 q 428 29 392 42 l 425 -3 q 252 7 356 7 q 75 -4 149 7 l 69 29 q 121 50 88 39 q 135 377 135 165 q 118 714 135 589 q 65 736 88 724 l 69 769 q 248 757 153 757 q 422 768 343 757 l 425 738 q 358 717 397 725 q 346 468 346 651 q 461 457 396 457 q 568 467 526 457 q 556 714 567 622 q 503 736 525 724 l 507 769 q 686 757 590 757 q 861 768 782 757 l 864 738 q 797 717 836 725 q 779 382 779 615 q 797 47 779 149 q 864 29 828 42 l 861 -3 q 688 7 792 7 q 510 -4 583 7 l 504 29 q 556 50 522 39 q 568 368 567 143 z "},"Ĩ":{"ha":535,"x_min":15,"x_max":593,"o":"m 440 1158 q 560 1213 522 1158 l 593 1189 q 401 1000 489 1047 q 288 1036 372 1000 q 163 1072 204 1072 q 49 1018 83 1072 l 15 1042 q 250 1229 115 1181 q 349 1175 308 1192 q 440 1158 389 1158 m 399 857 q 382 465 382 750 q 401 47 382 179 q 485 24 456 38 l 481 -12 q 263 0 381 0 q 63 -12 146 0 l 57 25 q 135 51 88 42 q 153 443 153 188 q 132 853 153 699 q 54 879 85 863 l 60 917 q 260 904 143 904 q 478 917 378 904 l 482 881 q 399 857 453 867 z "},"ĩ":{"ha":479,"x_min":-14,"x_max":564,"o":"m 411 999 q 531 1053 493 999 l 564 1029 q 372 840 460 888 q 259 876 343 840 q 133 913 175 913 q 19 858 54 913 l -14 882 q 221 1069 86 1021 q 319 1015 279 1032 q 411 999 360 999 m 119 43 q 135 358 135 139 q 118 707 135 578 q 65 729 88 717 l 69 763 q 249 750 153 750 q 424 761 344 750 l 426 731 q 360 710 399 718 q 344 382 344 607 q 361 40 344 157 q 428 22 392 33 l 425 -10 q 251 0 356 0 q 74 -11 147 0 l 68 22 q 119 43 86 32 z "},"ı":{"ha":479,"x_min":65,"x_max":428,"o":"m 119 43 q 135 358 135 139 q 118 707 135 578 q 65 729 88 717 l 69 763 q 249 750 153 750 q 424 761 344 750 l 426 731 q 360 710 399 718 q 344 382 344 607 q 361 40 344 157 q 428 22 392 33 l 425 -10 q 251 0 356 0 q 74 -11 147 0 l 68 22 q 119 43 86 32 z "},"Ĳ":{"ha":1071,"x_min":54,"x_max":1015,"o":"m 688 228 l 688 492 q 671 857 688 750 q 588 881 617 867 l 592 917 q 809 904 692 904 q 1010 917 926 904 l 1015 879 q 938 853 985 863 q 917 442 917 699 q 935 51 917 186 q 518 -253 794 -128 l 494 -224 q 647 -34 606 -139 q 688 228 688 71 m 399 857 q 382 465 382 750 q 401 47 382 179 q 485 24 456 38 l 481 -12 q 263 0 381 0 q 63 -12 146 0 l 57 25 q 135 51 88 42 q 153 443 153 188 q 132 853 153 699 q 54 879 85 863 l 60 917 q 260 904 143 904 q 478 917 378 904 l 482 881 q 399 857 453 867 z "},"ĳ":{"ha":894,"x_min":65,"x_max":831,"o":"m 119 43 q 135 358 135 139 q 118 707 135 578 q 65 729 88 717 l 69 763 q 249 750 153 750 q 424 761 344 750 l 426 731 q 360 710 399 718 q 344 382 344 607 q 361 40 344 157 q 428 22 392 33 l 425 -10 q 251 0 356 0 q 74 -11 147 0 l 68 22 q 119 43 86 32 m 778 707 q 760 353 760 563 q 775 11 760 143 q 404 -253 658 -136 l 383 -228 q 516 -64 481 -154 q 551 164 551 26 l 551 393 q 536 710 551 603 q 469 731 497 718 l 472 761 q 647 750 551 750 q 826 763 743 750 l 831 729 q 778 707 808 717 z "},"Ĵ":{"ha":533,"x_min":-139,"x_max":535,"o":"m 222 1226 q 265 1231 236 1231 q 308 1226 294 1231 q 535 1015 403 1085 l 521 982 l 265 1068 l 10 982 l -4 1015 q 222 1226 128 1085 m 121 922 q 219 913 139 922 q 357 904 299 904 q 474 917 415 904 l 479 879 q 400 849 453 865 q 381 445 381 704 q 399 51 381 186 q -18 -253 258 -128 l -42 -224 q 110 -34 69 -139 q 151 228 151 71 l 151 492 q 140 808 151 661 q 3 778 31 806 q -10 706 -10 743 q 11 657 -10 669 l 10 647 q -103 578 -56 621 q -139 618 -139 581 q -56 797 -139 707 q 121 922 26 888 z "},"ĵ":{"ha":478,"x_min":-35,"x_max":510,"o":"m 208 1100 q 238 1103 217 1103 q 267 1100 258 1103 q 510 831 378 910 l 496 797 l 238 907 l -21 797 l -35 831 q 208 1100 97 910 m 361 707 q 343 353 343 563 q 358 11 343 143 q -12 -253 242 -136 l -33 -228 q 99 -64 64 -154 q 135 164 135 26 l 135 393 q 119 710 135 603 q 53 731 81 718 l 56 761 q 231 750 135 750 q 410 763 326 750 l 414 729 q 361 707 392 717 z "},"ķ":{"ha":790,"x_min":47,"x_max":835,"o":"m 326 386 q 463 584 431 522 q 494 685 494 646 q 469 738 494 724 l 474 758 q 643 750 535 750 q 804 761 751 750 l 808 728 q 744 707 778 714 l 517 479 l 769 43 q 835 21 806 36 l 829 -12 q 658 0 765 0 q 490 -7 550 0 l 486 15 q 507 82 507 36 q 488 184 507 128 q 408 383 469 240 l 326 301 q 343 40 329 143 q 410 22 375 33 l 407 -10 q 233 0 338 0 q 56 -11 129 0 l 50 22 q 101 43 68 32 q 117 358 117 139 q 100 707 117 578 q 47 729 69 717 l 51 763 q 231 750 135 750 q 406 761 326 750 l 408 731 q 342 710 381 718 q 326 386 326 610 m 553 -132 q 478 -267 542 -207 q 322 -349 415 -328 l 308 -315 q 397 -237 378 -276 q 321 -132 340 -190 q 373 -84 339 -108 q 438 -47 407 -60 q 553 -132 511 -76 z "},"ĸ":{"ha":775,"x_min":50,"x_max":826,"o":"m 351 356 l 326 324 l 326 301 q 343 40 329 143 q 410 22 375 33 l 407 -10 q 233 0 338 0 q 56 -11 129 0 l 50 22 q 101 43 68 32 q 117 362 117 139 q 106 688 117 585 q 51 707 83 703 l 51 740 q 347 771 213 740 l 358 760 q 315 394 319 597 l 331 393 q 622 771 496 693 q 768 743 700 771 l 768 719 q 703 589 719 653 q 683 425 688 525 l 646 425 q 631 524 642 488 q 577 538 600 538 q 497 494 554 538 l 592 322 q 764 60 706 111 q 826 47 806 49 l 826 14 q 519 -17 629 8 l 506 -10 q 485 100 506 53 q 351 356 465 147 z "},"Ŀ":{"ha":724,"x_min":54,"x_max":743,"o":"m 688 535 q 634 465 674 506 q 564 403 594 424 q 494 465 533 424 q 439 535 454 506 q 492 594 456 563 q 564 640 529 625 q 633 592 596 624 q 688 535 669 561 m 114 -24 q 153 430 153 161 q 132 853 153 699 q 54 879 85 863 l 60 917 q 260 904 143 904 q 478 917 378 904 l 482 881 q 399 857 453 867 q 382 479 382 750 q 393 97 382 208 q 467 88 418 88 q 601 122 553 88 q 614 194 614 157 q 593 244 614 232 l 594 254 q 707 324 660 281 q 743 283 743 321 q 660 104 743 194 q 483 -21 578 14 q 183 35 342 -21 q 149 -32 164 11 l 114 -24 z "},"ŀ":{"ha":575,"x_min":65,"x_max":632,"o":"m 632 432 q 578 362 618 403 q 508 300 539 321 q 438 362 478 321 q 383 432 399 403 q 437 491 400 460 q 508 538 474 522 q 577 490 540 521 q 632 432 614 458 m 118 43 q 135 377 135 176 q 118 707 135 578 q 65 729 88 717 l 69 763 q 249 750 153 750 q 424 761 344 750 l 426 731 q 360 710 399 718 l 358 710 q 344 405 344 619 q 354 90 344 190 q 428 82 379 82 q 511 99 478 82 q 528 193 524 146 l 564 193 q 608 10 564 63 l 601 -15 q 340 0 497 0 q 72 -11 183 0 l 67 22 q 118 43 85 32 z "},"Ł":{"ha":724,"x_min":40,"x_max":743,"o":"m 551 614 l 563 550 l 67 369 l 54 375 l 40 442 q 353 542 214 492 q 542 618 493 593 l 551 614 m 114 -24 q 153 430 153 161 q 132 853 153 699 q 54 879 85 863 l 60 917 q 260 904 143 904 q 478 917 378 904 l 482 881 q 399 857 453 867 q 382 479 382 750 q 393 97 382 208 q 467 88 418 88 q 601 122 553 88 q 614 194 614 157 q 593 244 614 232 l 594 254 q 707 324 660 281 q 743 283 743 321 q 660 104 743 194 q 483 -21 578 14 q 183 35 342 -21 q 149 -32 164 11 l 114 -24 z "},"ł":{"ha":575,"x_min":56,"x_max":608,"o":"m 496 485 l 188 329 l 188 331 q 68 260 122 297 l 63 264 q 56 318 63 300 l 188 385 l 188 401 l 292 438 l 339 456 q 463 528 403 489 q 493 490 476 504 l 496 485 m 118 43 q 135 377 135 176 q 118 707 135 578 q 65 729 88 717 l 69 763 q 249 750 153 750 q 424 761 344 750 l 426 731 q 360 710 399 718 l 358 710 q 344 405 344 619 q 354 90 344 190 q 428 82 379 82 q 511 99 478 82 q 528 193 524 146 l 564 193 q 608 10 564 63 l 601 -15 q 340 0 497 0 q 72 -11 183 0 l 67 22 q 118 43 85 32 z "},"Ń":{"ha":981,"x_min":-139,"x_max":946,"o":"m 136 51 q 154 397 154 188 q 138 808 154 606 q 3 778 25 800 q -10 706 -10 743 q 11 657 -10 669 l 10 647 q -103 578 -56 621 q -139 618 -139 581 q -51 799 -139 708 q 133 922 36 890 q 231 913 151 922 q 366 904 311 904 q 467 915 421 904 l 471 890 q 438 849 438 881 q 446 789 438 817 q 518 643 454 761 q 710 315 582 525 l 715 318 l 715 449 q 692 777 715 688 q 586 888 669 867 l 590 917 q 765 904 671 904 q 942 917 858 904 l 946 881 q 849 857 910 867 q 835 698 842 822 q 828 369 828 574 q 849 47 828 165 q 946 24 901 39 l 942 -12 q 765 0 856 0 q 603 -8 675 0 q 544 168 603 51 q 272 640 486 285 l 267 638 l 267 531 q 282 203 267 315 q 349 47 297 92 q 432 24 403 38 l 428 -12 q 230 0 313 0 q 64 -12 147 0 l 58 25 q 136 51 89 42 m 692 1226 q 726 1231 704 1231 q 758 1226 747 1231 q 781 1157 771 1204 q 793 1074 792 1110 l 429 982 l 415 1015 q 692 1226 614 1108 z "},"ń":{"ha":899,"x_min":63,"x_max":849,"o":"m 118 43 q 135 369 135 171 q 115 707 135 568 q 63 729 85 717 l 67 763 q 260 750 150 750 q 432 761 369 750 l 436 738 q 410 699 410 726 q 448 601 410 672 q 647 267 486 529 l 651 269 l 651 379 q 632 646 651 575 q 543 733 613 717 l 547 760 q 688 750 608 750 q 846 761 768 750 l 849 731 q 782 710 821 718 q 764 378 764 604 q 782 40 764 151 q 849 22 813 33 l 846 -10 q 682 0 776 0 q 539 -7 588 0 q 504 100 539 33 q 253 524 464 176 l 247 522 l 247 432 q 260 167 247 256 q 315 40 272 78 q 382 22 346 33 l 379 -10 q 228 0 310 0 q 72 -11 146 0 l 67 22 q 118 43 85 32 m 690 1089 q 726 1093 703 1093 q 757 1090 749 1093 q 780 1015 769 1069 q 792 922 790 960 l 428 788 l 414 821 q 690 1089 588 915 z "},"Œ":{"ha":1131,"x_min":43,"x_max":1111,"o":"m 892 115 q 1088 200 1000 115 l 1110 179 q 849 -21 990 26 q 600 79 678 -21 q 382 -21 500 4 q 131 86 218 -21 q 43 378 43 193 q 160 711 43 564 q 472 925 276 858 q 647 915 550 925 q 858 904 743 904 q 1103 922 972 904 l 1111 893 q 1053 667 1057 821 l 1015 667 q 1003 788 1003 731 q 883 811 953 811 q 789 801 813 811 q 750 531 754 710 q 836 521 790 521 q 961 569 919 521 l 992 563 q 974 451 974 508 q 988 328 974 394 l 953 322 q 924 425 933 372 q 842 432 897 432 q 749 426 788 432 q 781 164 749 211 q 892 115 815 115 m 500 115 q 531 178 524 129 q 539 337 539 228 q 556 779 539 446 q 436 808 500 808 q 342 785 372 808 q 305 636 318 731 q 292 478 292 542 q 293 381 292 414 q 299 299 294 347 q 317 224 304 251 q 349 168 329 196 q 476 115 386 115 l 500 115 z "},"œ":{"ha":1003,"x_min":39,"x_max":974,"o":"m 957 767 l 965 738 q 915 553 921 667 l 879 553 q 868 649 868 604 q 785 668 831 668 q 711 664 739 668 q 679 444 683 592 l 679 443 q 732 438 701 438 q 860 481 819 438 l 889 472 q 874 377 874 424 q 886 271 874 331 l 853 265 q 828 350 838 301 q 746 357 793 357 q 676 351 699 357 q 704 149 676 192 q 797 101 735 101 q 872 119 839 101 q 951 175 904 138 l 974 149 q 729 -21 878 18 q 518 63 575 -21 q 336 -21 435 0 q 121 72 203 -21 q 39 316 39 164 q 142 595 39 468 q 411 768 246 722 q 544 758 471 768 q 735 750 622 750 q 957 767 847 750 m 414 93 l 433 93 q 460 146 454 106 q 467 283 467 186 q 473 507 467 381 q 479 646 479 633 q 382 671 433 671 q 303 651 331 671 q 272 528 283 607 q 260 397 260 450 q 261 315 260 343 q 267 247 263 286 q 281 183 271 207 q 307 136 290 160 q 414 93 339 93 z "},"Ŕ":{"ha":914,"x_min":-144,"x_max":943,"o":"m 393 810 q 382 413 382 647 q 401 47 382 179 q 485 24 456 38 l 481 -12 q 263 0 381 0 q 63 -12 146 0 l 57 25 q 135 51 88 42 q 153 407 153 188 q 136 810 153 626 q -3 779 24 806 q -15 708 -15 744 q 6 658 -15 671 l 4 649 q -108 579 -61 622 q -144 619 -144 582 q -70 789 -144 703 q 93 914 4 875 q 398 904 236 904 q 604 900 560 904 q 693 883 649 896 q 764 847 738 871 q 822 686 822 794 q 780 553 822 613 q 665 457 738 494 l 865 51 q 943 25 915 40 l 938 -12 q 758 0 869 0 q 567 -7 646 0 l 563 18 q 588 107 588 43 q 504 422 588 201 q 435 428 471 428 l 440 485 l 456 485 q 542 535 514 485 q 569 659 569 585 q 542 774 569 733 q 447 814 515 814 q 393 810 417 814 m 683 1226 q 717 1231 696 1231 q 750 1226 739 1231 q 773 1157 763 1204 q 785 1074 783 1110 l 421 982 l 407 1015 q 683 1226 606 1108 z "},"Ŗ":{"ha":914,"x_min":-144,"x_max":943,"o":"m 393 810 q 382 413 382 647 q 401 47 382 179 q 485 24 456 38 l 481 -12 q 263 0 381 0 q 63 -12 146 0 l 57 25 q 135 51 88 42 q 153 407 153 188 q 136 810 153 626 q -3 779 24 806 q -15 708 -15 744 q 6 658 -15 671 l 4 649 q -108 579 -61 622 q -144 619 -144 582 q -70 789 -144 703 q 93 914 4 875 q 398 904 236 904 q 604 900 560 904 q 693 883 649 896 q 764 847 738 871 q 822 686 822 794 q 780 553 822 613 q 665 457 738 494 l 865 51 q 943 25 915 40 l 938 -12 q 758 0 869 0 q 567 -7 646 0 l 563 18 q 588 107 588 43 q 504 422 588 201 q 435 428 471 428 l 440 485 l 456 485 q 542 535 514 485 q 569 659 569 585 q 542 774 569 733 q 447 814 515 814 q 393 810 417 814 m 635 -132 q 560 -267 624 -207 q 404 -349 497 -328 l 390 -315 q 479 -237 460 -276 q 403 -132 422 -190 q 455 -84 421 -108 q 519 -47 489 -60 q 635 -132 593 -76 z "},"ŗ":{"ha":794,"x_min":64,"x_max":839,"o":"m 64 744 l 429 756 q 639 725 567 756 q 728 567 728 686 q 691 453 728 506 q 594 369 654 400 l 774 43 q 839 21 811 36 l 833 -12 q 663 0 769 0 q 497 -7 556 0 l 493 15 q 514 99 514 36 q 446 343 514 161 q 388 347 421 347 l 393 404 l 407 404 q 500 551 500 404 q 399 697 500 697 q 357 693 375 697 q 344 363 344 581 q 358 40 344 144 l 360 40 q 426 22 390 33 l 424 -10 q 250 0 354 0 q 72 -11 146 0 l 67 22 q 118 43 85 32 q 135 361 135 193 q 118 692 135 529 q 64 713 97 704 l 64 744 m 564 -132 q 490 -267 553 -207 q 333 -349 426 -328 l 319 -315 q 408 -237 389 -276 q 332 -132 351 -190 q 384 -84 350 -108 q 449 -47 418 -60 q 564 -132 522 -76 z "},"Ř":{"ha":914,"x_min":-144,"x_max":943,"o":"m 393 810 q 382 413 382 647 q 401 47 382 179 q 485 24 456 38 l 481 -12 q 263 0 381 0 q 63 -12 146 0 l 57 25 q 135 51 88 42 q 153 407 153 188 q 136 810 153 626 q -3 779 24 806 q -15 708 -15 744 q 6 658 -15 671 l 4 649 q -108 579 -61 622 q -144 619 -144 582 q -70 789 -144 703 q 93 914 4 875 q 398 904 236 904 q 604 900 560 904 q 693 883 649 896 q 764 847 738 871 q 822 686 822 794 q 780 553 822 613 q 665 457 738 494 l 865 51 q 943 25 915 40 l 938 -12 q 758 0 869 0 q 567 -7 646 0 l 563 18 q 588 107 588 43 q 504 422 588 201 q 435 428 471 428 l 440 485 l 456 485 q 542 535 514 485 q 569 659 569 585 q 542 774 569 733 q 447 814 515 814 q 393 810 417 814 m 499 986 q 456 982 483 982 q 413 986 428 982 q 158 1197 333 1104 l 172 1231 l 456 1144 l 739 1231 l 753 1197 q 499 986 578 1104 z "},"ř":{"ha":794,"x_min":64,"x_max":839,"o":"m 64 744 l 429 756 q 639 725 567 756 q 728 567 728 686 q 691 453 728 506 q 594 369 654 400 l 774 43 q 839 21 811 36 l 833 -12 q 663 0 769 0 q 497 -7 556 0 l 493 15 q 514 99 514 36 q 446 343 514 161 q 388 347 421 347 l 393 404 l 407 404 q 500 551 500 404 q 399 697 500 697 q 357 693 375 697 q 344 363 344 581 q 358 40 344 144 l 360 40 q 426 22 390 33 l 424 -10 q 250 0 354 0 q 72 -11 146 0 l 67 22 q 118 43 85 32 q 135 361 135 193 q 118 692 135 529 q 64 713 97 704 l 64 744 m 443 800 q 414 797 435 797 q 385 800 393 797 q 114 1069 289 964 l 128 1103 l 414 993 l 700 1103 l 714 1069 q 443 800 539 964 z "},"Š":{"ha":664,"x_min":10,"x_max":704,"o":"m 10 -62 q 80 176 10 72 q 217 279 150 279 q 249 256 238 279 q 222 128 225 197 l 213 122 q 190 131 204 131 q 96 89 140 131 q 92 67 92 78 q 162 -14 92 19 q 308 -47 232 -47 q 446 83 446 -47 q 408 175 446 126 q 315 266 369 224 q 207 350 261 308 q 76 510 76 450 q 175 762 76 647 q 404 925 274 876 q 644 894 535 925 l 644 867 q 588 769 608 833 q 564 639 568 704 l 526 639 q 518 753 526 708 q 368 807 456 807 q 287 781 321 807 q 253 710 253 756 q 292 616 253 664 q 388 526 332 568 q 500 444 444 485 q 635 285 635 344 q 519 3 635 163 q 294 -201 403 -156 q 15 -129 135 -201 q 10 -62 10 -103 m 450 986 q 406 982 435 982 q 364 986 378 982 q 110 1197 285 1104 l 124 1231 l 407 1144 l 690 1231 l 704 1197 q 450 986 529 1104 z "},"Ÿ":{"ha":764,"x_min":-278,"x_max":831,"o":"m 275 382 l 275 417 l 50 864 q -47 992 1 957 q -154 936 -147 981 l -165 932 q -274 1008 -214 981 q -278 1025 -278 1017 q -238 1063 -278 1051 q -157 1074 -199 1074 q 108 1017 -36 1074 q 354 881 251 961 q 346 813 346 850 q 390 629 346 725 l 447 504 q 522 738 506 678 q 538 838 538 799 q 507 892 538 876 l 511 914 q 678 904 601 904 q 825 917 756 904 l 831 881 q 750 853 797 863 l 506 456 q 524 47 506 181 q 607 24 583 35 l 603 -12 q 391 0 514 0 q 185 -12 268 0 l 179 25 q 258 51 208 40 q 275 382 275 176 m 417 1124 q 363 1053 403 1094 q 293 992 324 1013 q 223 1053 263 1013 q 168 1124 183 1094 q 222 1183 185 1151 q 293 1229 258 1214 q 362 1181 325 1213 q 417 1124 399 1150 m 725 1124 q 672 1053 711 1094 q 601 992 632 1013 q 531 1053 571 1013 q 476 1124 492 1094 q 530 1183 493 1151 q 601 1229 567 1214 q 670 1181 633 1213 q 725 1124 707 1150 z "},"Ž":{"ha":703,"x_min":-29,"x_max":981,"o":"m 114 0 q 6 -32 64 0 l -18 -8 q 108 164 51 65 l 471 794 l 418 775 l 333 799 q 228 817 257 817 q 113 790 160 817 q 100 719 100 756 q 121 669 100 682 l 119 660 q 7 590 54 633 q -29 631 -29 593 q 54 803 -29 713 q 228 933 138 894 q 408 919 299 933 q 615 904 517 904 q 763 953 714 904 l 793 928 q 740 867 764 897 q 683 763 714 826 l 353 82 q 486 -6 411 57 q 631 -112 561 -68 q 778 -156 701 -156 q 831 -65 831 -107 q 822 -46 831 -53 l 831 -35 q 891 -39 856 -39 q 960 -24 926 -39 q 981 -51 981 -32 q 845 -184 981 -117 q 538 -285 710 -251 l 494 -240 q 114 0 261 0 m 553 986 q 509 982 538 982 q 467 986 481 982 q 213 1197 388 1104 l 226 1231 l 510 1144 l 793 1231 l 807 1197 q 553 986 632 1104 z "},"ȷ":{"ha":411,"x_min":-26,"x_max":421,"o":"m 368 707 q 350 353 350 563 q 365 11 350 143 q -6 -253 249 -136 l -26 -228 q 106 -64 71 -154 q 142 164 142 26 l 142 393 q 126 710 142 603 q 60 731 88 718 l 63 761 q 238 750 142 750 q 417 763 333 750 l 421 729 q 368 707 399 717 z "},"ˆ":{"ha":600,"x_min":0,"x_max":600,"o":"m 271 1100 q 300 1103 279 1103 q 329 1100 321 1103 q 600 831 425 936 l 586 797 l 300 907 l 14 797 l 0 831 q 271 1100 175 936 z "},"ˇ":{"ha":600,"x_min":0,"x_max":600,"o":"m 329 800 q 300 797 321 797 q 271 800 279 797 q 0 1069 175 964 l 14 1103 l 300 993 l 586 1103 l 600 1069 q 329 800 425 964 z "},"˚":{"ha":307,"x_min":0,"x_max":307,"o":"m 154 800 q 44 830 89 800 q 0 919 0 860 q 47 1026 0 979 q 164 1088 93 1072 q 307 971 307 1088 q 264 864 307 908 q 154 800 221 819 m 222 940 q 222 958 222 940 q 201 999 222 976 q 144 1021 179 1021 q 94 1010 110 1021 q 85 948 85 985 q 107 888 85 911 q 162 865 129 865 q 213 878 194 865 q 222 940 222 903 z "},"˜":{"ha":606,"x_min":0,"x_max":606,"o":"m 453 999 q 572 1053 535 999 l 606 1029 q 414 840 501 888 q 282 876 376 840 q 147 913 188 913 q 33 858 68 913 l 0 882 q 235 1069 100 1021 q 453 999 344 999 z "},"̇":{"ha":263,"x_min":0,"x_max":263,"o":"m 263 946 q 206 872 247 915 q 132 807 164 829 q 58 872 100 828 q 0 946 17 915 q 56 1008 18 975 q 132 1058 94 1042 q 204 1008 165 1040 q 263 946 243 975 z "},"–":{"ha":633,"x_min":10,"x_max":624,"o":"m 21 425 q 377 413 193 413 q 615 417 561 413 l 624 408 l 613 333 l 21 333 l 10 343 l 21 425 z "},"—":{"ha":911,"x_min":10,"x_max":901,"o":"m 21 425 q 548 413 257 413 q 893 417 839 413 l 901 408 l 890 333 l 21 333 l 10 343 l 21 425 z "},"‘":{"ha":357,"x_min":47,"x_max":317,"o":"m 47 593 q 127 788 47 682 q 294 946 207 894 l 317 918 q 211 706 224 831 q 267 649 238 683 q 310 593 297 615 q 253 531 292 564 q 178 481 215 497 q 106 531 144 499 q 47 593 67 564 z "},"’":{"ha":357,"x_min":40,"x_max":310,"o":"m 310 833 q 230 638 310 744 q 63 481 150 532 l 40 508 q 146 721 133 596 q 90 777 119 743 q 47 833 60 811 q 103 896 65 863 q 179 946 142 929 q 251 895 213 928 q 310 833 290 863 z "},"‚":{"ha":357,"x_min":40,"x_max":310,"o":"m 310 118 q 231 -63 310 36 q 64 -208 151 -162 l 40 -178 q 146 6 133 -100 q 90 62 119 28 q 47 118 60 96 q 103 181 65 147 q 179 231 142 214 q 251 180 213 213 q 310 118 290 147 z "},"“":{"ha":656,"x_min":47,"x_max":615,"o":"m 47 593 q 127 788 47 682 q 294 946 207 894 l 317 918 q 211 706 224 831 q 267 649 238 683 q 310 593 297 615 q 253 531 292 564 q 178 481 215 497 q 106 531 144 499 q 47 593 67 564 m 346 593 q 426 788 346 682 q 593 946 506 894 l 615 918 q 510 706 522 831 q 566 649 536 683 q 608 593 596 615 q 552 531 590 564 q 476 481 514 497 q 404 531 443 499 q 346 593 365 564 z "},"”":{"ha":656,"x_min":40,"x_max":608,"o":"m 608 833 q 528 638 608 744 q 361 481 449 532 l 339 508 q 444 721 432 596 q 388 777 418 743 q 346 833 358 811 q 402 896 364 863 q 478 946 440 929 q 550 895 511 928 q 608 833 589 863 m 310 833 q 230 638 310 744 q 63 481 150 532 l 40 508 q 146 721 133 596 q 90 777 119 743 q 47 833 60 811 q 103 896 65 863 q 179 946 142 929 q 251 895 213 928 q 310 833 290 863 z "},"„":{"ha":656,"x_min":40,"x_max":608,"o":"m 310 118 q 231 -63 310 36 q 64 -208 151 -162 l 40 -178 q 146 6 133 -100 q 90 62 119 28 q 47 118 60 96 q 103 181 65 147 q 179 231 142 214 q 251 180 213 213 q 310 118 290 147 m 608 118 q 529 -63 608 36 q 363 -208 450 -162 l 339 -178 q 444 6 432 -100 q 388 62 418 28 q 346 118 358 96 q 402 181 364 147 q 478 231 440 214 q 550 180 511 213 q 608 118 589 147 z "},"•":{"ha":515,"x_min":47,"x_max":499,"o":"m 499 419 l 499 400 q 380 298 429 353 q 288 167 331 243 l 260 167 q 47 399 174 318 l 47 418 q 174 519 128 475 q 260 633 221 564 l 288 633 q 374 518 326 564 q 499 419 421 472 z "},"…":{"ha":994,"x_min":47,"x_max":947,"o":"m 310 118 q 253 44 294 88 q 179 -21 211 1 q 106 44 147 0 q 47 118 64 88 q 103 181 65 147 q 179 231 142 214 q 251 180 213 213 q 310 118 290 147 m 628 118 q 571 44 613 88 q 497 -21 529 1 q 424 44 465 0 q 365 118 382 88 q 422 181 383 147 q 497 231 460 214 q 569 180 531 213 q 628 118 608 147 m 947 118 q 890 44 932 88 q 817 -21 849 1 q 743 44 785 0 q 685 118 701 88 q 741 181 703 147 q 817 231 779 214 q 889 180 850 213 q 947 118 928 147 z "},"‹":{"ha":418,"x_min":39,"x_max":356,"o":"m 199 413 l 356 124 l 328 104 q 257 183 281 158 q 208 237 233 208 q 167 280 182 265 q 128 317 151 294 q 39 393 90 354 l 39 421 q 328 699 163 513 l 354 681 l 199 413 z "},"›":{"ha":418,"x_min":63,"x_max":379,"o":"m 63 124 l 219 413 l 64 681 l 90 699 q 145 636 119 664 q 195 581 171 608 q 232 542 219 554 q 266 509 244 531 q 303 475 288 488 q 379 421 356 435 l 379 393 q 233 267 308 349 q 160 183 208 239 q 90 104 113 128 l 63 124 z "},"⁄":{"ha":789,"x_min":-10,"x_max":799,"o":"m 57 -58 q 16 -33 38 -54 q -10 -1 -6 -11 q 164 222 119 163 l 517 710 q 700 978 599 824 q 793 968 724 972 l 799 964 q 610 708 754 908 l 57 -58 z "},"€":{"ha":750,"x_min":35,"x_max":736,"o":"m 464 674 q 385 654 408 674 q 344 461 354 582 q 618 468 497 461 q 632 424 632 425 l 632 415 q 342 411 571 415 l 342 350 q 618 357 496 350 q 632 313 632 314 l 632 304 q 343 300 576 304 q 383 154 350 206 q 500 103 417 103 q 669 175 583 103 l 693 151 q 463 -21 593 24 q 210 61 303 -21 q 115 296 118 143 l 39 292 l 35 300 q 58 354 51 328 l 117 350 q 126 407 122 385 l 125 407 l 49 403 l 44 411 q 68 465 61 439 l 140 461 l 142 461 q 275 658 182 575 q 493 771 368 740 q 736 749 613 771 l 735 717 q 682 706 711 717 q 647 526 650 621 l 613 526 q 597 625 600 575 q 464 674 546 674 z "}}}
